<?xml version="1.0" encoding="UTF-8" standalone="no"?>
<!-- Created with Inkscape (http://www.inkscape.org/) -->

<svg
   version="1.1"
   id="svg270"
   width="2100"
   height="910.66669"
   viewBox="0 0 2100 910.66669"
   sodipodi:docname="stack6.png"
   xmlns:inkscape="http://www.inkscape.org/namespaces/inkscape"
   xmlns:sodipodi="http://sodipodi.sourceforge.net/DTD/sodipodi-0.dtd"
   xmlns="http://www.w3.org/2000/svg"
   xmlns:svg="http://www.w3.org/2000/svg">
  <defs
     id="defs274" />
  <sodipodi:namedview
     id="namedview272"
     pagecolor="#ffffff"
     bordercolor="#000000"
     borderopacity="0.25"
     inkscape:showpageshadow="2"
     inkscape:pageopacity="0.0"
     inkscape:pagecheckerboard="0"
     inkscape:deskcolor="#d1d1d1"
     showgrid="false" />
  <g
     inkscape:groupmode="layer"
     inkscape:label="Image"
     id="g276">
    <path
       style="fill:#000000;stroke-width:1.33333"
       d="m 1560.3011,858.58464 c -5.8018,-1.14351 -12.7466,-7.39779 -13.1594,-11.851 -0.1053,-1.13683 -0.2553,-2.81695 -0.3333,-3.73362 -0.077,-0.91667 -1.8083,-1.66667 -3.8451,-1.66667 -5.6249,0 -9.2537,-3.25546 -10.0056,-8.9759 -0.363,-2.76326 -1.6589,-8.9241 -2.8796,-13.69076 -1.8365,-7.17148 -1.9673,-10.12219 -0.7584,-17.1034 0.8036,-4.6402 1.1066,-9.55366 0.6732,-10.91879 -0.528,-1.66353 0.097,-2.956 1.8975,-3.91916 4.4568,-2.38517 7.1789,3.38308 7.0797,15.00149 -0.112,13.1705 2.1758,27.61826 4.5166,28.51652 3.0104,1.15522 5.445,-1.85965 6.4081,-7.93517 1.2692,-8.00824 6.8265,-15.64149 11.3875,-15.64149 5.8388,0 9.6181,5.55906 12.4673,18.3382 0.9921,4.45017 -2.8596,8.21206 -10.4163,10.1731 -6.1462,1.59502 -6.6445,2.02531 -6.3833,5.51172 0.4109,5.48609 2.6708,6.92247 12.3833,7.87085 10.1827,0.99429 16.8972,-1.5777 19.7379,-7.56054 0.9576,-2.01667 2.3477,-3.66667 3.0892,-3.66667 2.7427,0 6.6893,2.92732 7.7572,5.75383 3.9255,10.3891 -19.3461,19.49262 -39.6165,15.49746 z m 0.9713,-32.51123 c 1.9529,-2.35315 1.3513,-7.65908 -0.9545,-8.41855 -1.7426,-0.57392 -5.8998,7.53096 -4.7867,9.33195 1.0141,1.64098 4.0179,1.1631 5.7412,-0.9134 z m -168.5567,21.43025 c -5.0366,-5.03664 -7.7329,-16.16783 -10.2148,-42.17031 -1.6072,-16.8377 -2.2596,-31.81112 -1.5253,-35 0.8553,-3.7137 5.4029,-2.758 7.6619,1.61015 1.1216,2.16892 2.1088,7.41892 2.1938,11.66667 0.085,4.24776 0.5248,8.32318 0.9774,9.05652 0.4524,0.73333 0.8952,6.13333 0.9838,12 0.2006,13.25933 3.6122,24.37956 7.99,26.04405 2.1012,0.79889 3.3542,2.66179 3.9592,5.88691 2.2464,11.97437 -4.678,18.25393 -12.026,10.90601 z m 108.6176,-1.80441 c -1.1,-0.41631 -2.4798,-1.56894 -3.0662,-2.5614 -0.5864,-0.99247 -2.0864,-1.80774 -3.3334,-1.8117 -1.2469,-0.004 -5.2249,-3.07249 -8.8401,-6.81896 l -6.5729,-6.81177 -1.0214,-16.84771 c -1.3557,-22.36385 -3.3572,-31.6801 -7.9158,-36.84769 -3.8568,-4.37204 -3.7347,-7.69769 0.3369,-9.16555 4.5857,-1.65328 6.4379,-0.15084 10.9545,8.88622 4.2703,8.54413 6.1251,18.12254 6.1251,31.6314 0,6.65841 0.5915,10.79376 1.6667,11.65234 0.9166,0.73203 6.1784,1.60651 11.6929,1.94331 12.2748,0.74971 17.1908,2.95832 20.5643,9.23885 2.3888,4.4476 2.4221,4.99122 0.4285,6.98486 -1.1891,1.18905 -2.8048,2.1619 -3.5905,2.1619 -0.7858,0 -1.4286,0.51482 -1.4286,1.14404 0,0.90279 -12.959,8.49985 -13.7897,8.08403 -0.116,-0.0579 -1.1103,-0.44586 -2.2103,-0.86217 z m 3,-10.55503 c 2.75,-0.45455 5,-1.58924 5,-2.52156 0,-3.73455 -13.3096,-5.23037 -15.4678,-1.73836 -0.9283,1.50212 1.8844,5.12135 3.9644,5.10104 0.8269,-0.008 3.7534,-0.38657 6.5034,-0.84112 z m -56.7936,5.28448 c -0.4974,-0.49757 -0.6288,-2.74757 -0.2918,-5 2.6322,-17.59152 2.4288,-18.00489 -5.7227,-11.62761 -4.9823,3.89788 -12.5243,5.89304 -17.4284,4.61056 -4.6501,-1.21602 -3.7077,-7.8752 1.5699,-11.0926 2.3833,-1.45298 4.8693,-2.82284 5.5245,-3.04414 0.6552,-0.22129 0.4607,-1.76733 -0.4321,-3.43564 -1.4826,-2.76998 -1.8752,-2.86636 -4.5246,-1.11029 -1.5957,1.05764 -3.1206,3.05129 -3.3888,4.43035 -1.1594,5.96281 -8.2092,4.34017 -8.1369,-1.87288 0.048,-4.12263 5.4321,-10.9531 8.6337,-10.9531 3.8703,0 13.9908,5.3591 13.9908,7.40851 0,3.33871 3.6703,3.67452 7.8252,0.71599 5.5352,-3.94143 11.3348,-3.6952 13.2754,0.56361 1.9209,4.21596 0.6065,22.49964 -1.9874,27.64523 -1.769,3.50948 -6.6466,5.02204 -8.9068,2.76201 z M 1284,835.18297 c -2.1297,-0.64043 -8,-8.86696 -8,-11.21116 0,-0.76942 -0.9426,-2.8376 -2.0948,-4.59596 -1.6528,-2.52255 -1.7745,-3.79542 -0.5767,-6.03352 2.2203,-4.14859 5.3634,-2.80527 9.3382,3.99102 3.5499,6.06986 7.502,8.29642 9.3677,5.27763 0.5614,-0.90828 1.4364,-6.08831 1.9446,-11.51119 0.7946,-8.47954 1.3852,-10.16201 4.2191,-12.01885 3.0199,-1.97872 3.4733,-1.98096 5.4275,-0.0268 2.5425,2.54256 2.7209,12.44727 0.337,18.71596 -3.3561,8.82513 -5.2498,12.44148 -7.6545,14.61775 -2.6198,2.37081 -8.9434,3.80686 -12.3081,2.79508 z m -31.6687,-3.51628 c -2.8953,-3.1018 -4.7591,-8.54194 -4.9107,-14.33334 -0.1315,-5.0206 -5.0728,-5.16972 -8.5698,-0.25861 -3.8803,5.44943 -13.0167,7.95741 -20.269,5.56393 -7.0516,-2.32724 -8.1621,-3.95828 -7.1222,-10.46125 0.7071,-4.42189 1.9806,-6.27933 6.7299,-9.81568 3.2218,-2.39895 7.3781,-5.71172 9.2362,-7.36172 1.8581,-1.65 5.0832,-3 7.167,-3 4.7348,0 6.4401,3.49329 2.3393,4.79207 -4.2157,1.33514 -15.5987,12.62257 -15.5987,15.46776 0,1.94372 1.0904,2.40556 5.6667,2.40021 7.2388,-0.008 11.8266,-3.81449 14.9479,-12.40085 2.1739,-5.97991 2.6092,-6.38028 6.524,-6 4.1272,0.4009 4.209,0.54716 5.0767,9.07414 1.3883,13.64275 2.6117,16.45378 7.6051,17.47504 2.3732,0.48538 4.6393,1.20684 5.0357,1.60326 1.5811,1.5811 -1.2634,6.39722 -4.8843,8.26966 -5.0308,2.60148 -5.6655,2.52972 -8.9738,-1.01462 z m 88.5015,-0.35762 c -1.1913,-1.19141 -2.1661,-4.18793 -2.1661,-6.65893 0,-5.85304 -1.7954,-6.78551 -6.5483,-3.40109 -3.8734,2.75808 -11.036,3.53988 -17.232,1.88088 -2.7663,-0.7407 -3.0146,-1.37079 -2.2254,-5.64847 1.5156,-8.21525 7.9057,-13.49849 17.2203,-14.23768 2.9986,-0.23796 7.2655,-0.81323 9.482,-1.27836 6.0096,-1.26111 8.3803,2.25457 10.2719,15.23265 1.7304,11.87243 0.9184,15.145 -3.9385,15.87291 -1.4838,0.22236 -3.6724,-0.57051 -4.8639,-1.76191 z m -8.7689,-18.34533 c 2.6141,0.6836 3.6584,-1.48732 1.3897,-2.88936 -2.0156,-1.24573 -5.4607,0.73065 -5.3483,3.06829 0.058,1.20487 0.3866,1.50438 0.7306,0.66556 0.3439,-0.83881 1.7965,-1.21884 3.228,-0.84449 z m 26.8694,13.43628 c -2.611,-2.61101 -1.8404,-6.42905 2.0667,-10.23892 2.0167,-1.96652 4.3929,-4.75724 5.2805,-6.20161 1.5643,-2.54543 1.7179,-2.51116 5,1.11488 3.337,3.68669 4.6522,10.25898 2.0528,10.25898 -0.7333,0 -1.3333,0.8789 -1.3333,1.9531 0,4.04632 -9.7989,6.38125 -13.0667,3.11357 z M 597.43011,797.82021 c -1.5199,-1.93223 -2.76344,-4.89682 -2.76344,-6.58798 0,-1.69116 -0.54096,-3.40917 -1.20214,-3.8178 -0.66118,-0.40862 -1.61549,-4.30437 -2.12069,-8.6572 -1.02105,-8.79744 -1.93897,-9.11078 -9.18567,-3.13564 -3.2144,2.65038 -5.06533,3.10327 -11.33333,2.77307 -6.953,-0.36627 -7.50152,-0.63424 -7.63073,-3.72797 -0.0765,-1.83334 -0.58242,-5.525 -1.12407,-8.20371 -0.70837,-3.50312 -0.33977,-6.22976 1.31303,-9.71277 2.68036,-5.64844 5.53882,-7.50972 9.32989,-6.07512 6.24413,2.36289 7.75299,9.32493 2.02096,9.32493 -1.77036,0 -2.97605,1.16716 -3.54423,3.43096 -1.34992,5.37849 1.10524,6.51308 6.46202,2.98624 2.57618,-1.69612 5.75777,-3.71729 7.0702,-4.49149 2.0827,-1.22858 2.18576,-1.98271 0.81014,-5.9288 -0.86685,-2.48664 -1.91036,-9.14876 -2.31892,-14.8047 -0.7022,-9.72105 -0.58346,-10.3341 2.1707,-11.20824 4.43437,-1.40741 6.5743,1.81346 8.05249,12.11996 0.72804,5.07618 1.9284,11.96335 2.66748,15.30484 0.73907,3.34148 0.95581,7.08643 0.48164,8.3221 -0.53795,1.40189 -0.0887,2.54344 1.19475,3.03594 1.13128,0.43411 2.43209,2.49771 2.8907,4.58578 0.45862,2.08806 1.69528,4.51141 2.74815,5.38521 1.05287,0.8738 1.91429,2.97984 1.91429,4.68011 0,1.70025 0.6,3.4622 1.33334,3.91542 2.26576,1.40032 1.62661,12.26883 -0.77572,13.19068 -3.79528,1.45639 -5.6562,0.86171 -8.46084,-2.70382 z m -115.20788,-2.70908 c -2.52388,-2.52388 1.51222,-16.40848 4.77777,-16.43602 0.55,-0.004 1,-0.85225 1,-1.8836 0,-1.21873 0.93352,-1.63105 2.66667,-1.17782 2.02146,0.52862 2.66666,0.0409 2.66666,-2.01578 0,-4.71122 -1.5179,-6.93122 -4.73914,-6.93122 -2.42022,0 -3.89228,-1.53655 -6.55942,-6.84668 -3.10506,-6.18207 -3.25158,-7.13258 -1.50926,-9.79168 5.94676,-9.07591 15.53461,-15.36164 23.43166,-15.36164 7.87814,0 4.04574,8.94026 -5.58705,13.03353 -2.03693,0.86555 -3.99368,2.99191 -4.45887,4.84535 -0.89906,3.5822 0.2482,6.59197 2.08096,5.45926 2.6303,-1.62561 8.03596,2.55042 9.32959,7.20735 1.77864,6.40292 1.82924,6.02232 -2.12911,16.01656 -4.09656,10.34324 -8.5792,14.65584 -15.3038,14.72333 -2.62778,0.0264 -5.17778,-0.35205 -5.66666,-0.84094 z m 875.11107,-9.00206 c 0,-7.76813 3.7131,-9.82142 7.4492,-4.11934 2.9243,4.46304 1.5878,7.34362 -3.4073,7.34362 -3.386,0 -4.0419,-0.52321 -4.0419,-3.22428 z m -911.53637,0.46818 c -5.11388,-1.89175 -6.45674,-5.24311 -6.64697,-16.58855 -0.1816,-10.83209 -1.78588,-16.2886 -5.41855,-18.42964 -2.87945,-1.69712 0.45044,-4.89237 5.09851,-4.89237 3.57941,0 3.83675,0.35334 3.83675,5.26828 0,6.22476 3.2897,19.60262 5.46493,22.22361 2.69565,3.24807 6.19803,1.98604 10.41972,-3.75456 3.93667,-5.35305 5.49876,-11.73733 2.87187,-11.73733 -0.68392,0 -1.62435,-1.2 -2.08986,-2.66667 -2.64664,-8.3388 5.81016,-11.11304 11.88148,-3.89769 3.86771,4.59652 4.45456,9.40566 1.45186,11.89769 -1.1,0.91292 -2,2.66615 -2,3.89607 0,1.22992 -2.87076,5.79965 -6.37948,10.15496 -5.0818,6.30796 -7.35124,8.07669 -11.15678,8.69526 -2.6275,0.4271 -5.92757,0.35102 -7.33348,-0.16906 z m 84.45524,-8.41566 c -8.0925,-2.25896 -8.70821,-2.9194 -9.74008,-10.44761 -1.22884,-8.96539 0.23583,-14.95004 4.17475,-17.05809 2.004,-1.07251 3.31316,-2.94488 3.31316,-4.73852 0,-3.36355 2.28145,-4.58402 8.56907,-4.58402 5.3411,0 8.76426,3.47552 8.76426,8.89834 0,4.62156 -3.5237,8.37946 -9.75237,10.40058 -4.23064,1.37278 -6.24837,5.23367 -3.94101,7.54103 0.67284,0.67284 4.73486,1.79487 9.02672,2.49339 9.22226,1.50096 11.45638,3.11504 8.45964,6.1118 -2.90274,2.90272 -11.24123,3.51377 -18.87414,1.3831 z m 998.52503,-0.64929 c -0.5743,-0.92933 -0.6841,-2.04977 -0.244,-2.48988 1.1932,-1.19328 2.4943,0.56173 1.8499,2.49527 -0.4518,1.35489 -0.7658,1.35384 -1.6059,-0.005 z m -126.0373,-51.85472 c -5.4594,-8.35737 -8.2959,-10.91184 -13.1224,-11.8173 -2.5426,-0.47697 -7.7427,-3.40846 -11.556,-6.51444 -13.594,-11.07246 -39.1494,-21.63693 -55.007,-22.73964 -11.4392,-0.79545 -17.5341,-2.13332 -28.0394,-6.15481 -7.2875,-2.78964 -31.9957,-6.39851 -43.95,-6.41931 -3.8143,-0.007 -10.4143,0.89571 -14.6667,2.0052 -5.3592,1.39826 -13.6644,1.97088 -27.0651,1.86607 -12.2858,-0.0961 -21.0344,0.44768 -24,1.49176 -2.8389,0.99949 -13.8996,1.78203 -28.2407,1.998 -12.9657,0.19527 -24.1225,0.69404 -24.793,1.1084 -1.9924,1.23139 -72.1804,5.03208 -100.9663,5.46733 -14.6666,0.22178 -31.1666,0.54755 -36.66663,0.72395 -9.37266,0.3006 -32.13512,-2.60671 -37.98531,-4.85164 -3.57248,-1.37088 -8.6228,-7.00592 -9.3064,-10.38388 -0.30839,-1.52383 -0.80583,-5.92059 -1.10544,-9.77059 -0.51364,-6.60038 -0.36711,-7 2.56688,-7 2.52163,0 3.8714,1.62508 7.1188,8.57086 2.20396,4.71396 5.06565,8.89828 6.35933,9.29849 6.96439,2.15448 29.23995,3.72309 51.01877,3.59267 45.3095,-0.27134 89.8985,-1.60383 99.7804,-2.98183 5.3792,-0.75011 10.0909,-1.05332 10.4705,-0.6738 0.3795,0.37952 2.2495,0.0971 4.1556,-0.62759 1.9061,-0.72468 13.2954,-1.30485 25.3096,-1.28926 18.7858,0.0244 22.9775,-0.36394 29.9404,-2.7736 7.3957,-2.55942 9.8015,-2.72076 27.7972,-1.86418 15.0394,0.71588 20.4318,0.53103 22.7903,-0.7812 4.7056,-2.61826 44.8295,-1.99548 54.4227,0.84474 12.3319,3.65105 28.0048,7.19182 42,9.48854 8.5653,1.40564 16.6709,3.7435 22.6667,6.53763 5.1333,2.39224 13.2333,6.02371 18,8.06993 4.7666,2.04622 10.3628,5.47684 12.4358,7.62362 2.0731,2.14677 5.9731,4.50176 8.6667,5.23329 2.6936,0.73153 5.8648,2.1886 7.0471,3.23793 1.1822,1.04932 4.0437,2.45111 6.3589,3.11507 3.6629,1.05052 4.6536,0.74243 7.6329,-2.37372 1.8832,-1.96951 4.79,-5.68973 6.4599,-8.26716 1.6697,-2.57743 3.8703,-5.37864 4.89,-6.22491 1.5867,-1.31682 32.5256,-11.76834 42.5087,-14.35989 5.5313,-1.43592 41.8172,-5.92064 42.8314,-5.29373 1.1646,0.71969 40.1747,-2.79928 52.034,-4.69382 6.8699,-1.09748 10.2471,-0.97236 16.2984,0.6038 4.1982,1.09347 9.5536,1.9869 11.9012,1.98542 2.3476,-0.001 9.5115,0.95957 15.9198,2.13572 8.5146,1.56272 12.6968,1.77404 15.5342,0.7849 2.8428,-0.99102 9.1858,-0.66109 23.6819,1.23186 31.6384,4.1314 49.2549,5.64566 67.7991,5.82781 12.1028,0.11893 19.345,0.83243 24,2.3646 3.6666,1.20688 12.3666,2.82751 19.3333,3.60137 21.0708,2.34059 23.0703,2.75528 30.3183,6.28798 6.295,3.06825 7.9409,3.31346 16.6666,2.48321 15.5127,-1.47603 22.3304,-1.34767 33.6818,0.63415 14.7866,2.58158 18.0037,2.41161 52,-2.7475 9.9869,-1.51557 18.5964,-5.03158 24.5149,-10.01161 5.0104,-4.21603 9.9005,-5.30225 12.0751,-2.68217 1.4268,1.71913 1.3397,2.66773 -0.5028,5.47976 -1.2255,1.8704 -3.6966,4.0697 -5.4911,4.88736 -1.7945,0.81765 -3.2628,1.97533 -3.2628,2.57262 0,3.84618 -21.5756,9.17591 -53.3333,13.17471 -10.7566,1.35443 -31.5063,-0.28379 -36.3366,-2.8688 -1.6352,-0.8752 -5.4314,-1.10748 -9.5245,-0.58279 -20.0803,2.57404 -21.6323,2.51926 -32.2207,-1.13724 -5.6402,-1.94777 -14.5293,-4.10073 -19.7533,-4.78437 -5.224,-0.68363 -13.9983,-2.20861 -19.4983,-3.38885 -5.5,-1.18023 -20.5,-2.64203 -33.3333,-3.24846 -12.8333,-0.60641 -28.4333,-1.76996 -34.6667,-2.58565 -6.2333,-0.81571 -17.0333,-2.04204 -24,-2.7252 -6.9666,-0.68316 -15.151,-1.77773 -18.1874,-2.43237 -3.0366,-0.65464 -10.2366,-0.78123 -16,-0.2813 -5.7636,0.49994 -11.8683,0.40736 -13.566,-0.2057 -1.6978,-0.61307 -5.2978,-1.13604 -8,-1.16216 -2.7023,-0.0261 -8.5132,-0.91675 -12.9132,-1.97918 -10.1794,-2.45789 -21.953,-2.4672 -38.1199,-0.0301 -7.0325,1.06012 -20.8325,2.25944 -30.6667,2.66516 -27.4896,1.13413 -39.0606,3.07584 -63.8801,10.71968 -6.2333,1.91973 -13.4333,4.02484 -16,4.67804 -5.538,1.40939 -10.6667,6.86611 -10.6667,11.34903 0,1.76352 -0.943,3.98006 -2.0956,4.92564 -5.9176,4.85493 -7.2377,6.70061 -7.2377,10.11924 0,8.45669 -8.2144,9.64869 -13.2601,1.92423 z M 782.66667,692.49662 c -3.7147,-1.64998 -8.41403,-1.96115 -23.0365,-1.5254 -14.05352,0.4188 -18.71038,0.13708 -19.81922,-1.199 -0.807,-0.97238 -2.74356,-1.42162 -4.3693,-1.01358 -2.02858,0.50914 -3.9895,-0.33678 -6.42397,-2.77125 -3.10805,-3.10805 -4.45615,-3.47912 -11.92756,-3.28309 -20.39093,0.53498 -30.14996,-0.10147 -31.78625,-2.07312 -0.89672,-1.08047 -2.30692,-1.96819 -3.13379,-1.97271 -0.82688,-0.004 -3.17876,-0.88208 -5.2264,-1.95015 -2.04764,-1.06806 -5.80427,-2.33238 -8.34807,-2.8096 -2.54378,-0.47722 -4.95385,-1.39965 -5.35569,-2.04985 -0.40185,-0.6502 -2.45981,-1.18219 -4.57325,-1.18219 -2.11344,0 -4.16176,-0.51637 -4.5518,-1.14748 -0.74854,-1.21114 -12.10179,-4.65154 -22.14198,-6.70972 -3.28509,-0.67342 -9.45217,-2.18104 -13.70461,-3.35026 -15.73416,-4.32616 -65.04348,-1.46288 -71.82437,4.17068 -1.079,0.89642 -3.70924,4.96988 -5.84499,9.05209 -3.98168,7.61053 -7.20788,9.69575 -12.43449,8.03688 -1.48208,-0.47039 -3.10959,-2.16251 -3.6167,-3.76025 -2.28428,-7.19714 -13.70086,-12.9586 -25.67797,-12.9586 -2.80059,0 -5.54196,-0.45 -6.09195,-1 -0.54997,-0.55 -13.09997,-1.1011 -27.88889,-1.22466 -23.89843,-0.19968 -27.70451,0.0717 -34.22225,2.44039 -4.03334,1.46579 -11.27174,2.85717 -16.08532,3.09197 -4.8136,0.23482 -12.6136,0.81478 -17.33334,1.28883 -4.71974,0.47404 -19.98134,1.05595 -33.91468,1.29311 -17.9358,0.30528 -31.17349,1.33092 -45.33333,3.51233 -16.78464,2.5858 -24.66177,3.04911 -48.99685,2.88183 -27.70074,-0.19042 -29.1758,-0.33162 -33,-3.15898 -2.20174,-1.6278 -4.00602,-3.59681 -4.00952,-4.37557 -0.005,-1.23716 -2.01208,-3.79755 -11.32108,-14.44607 -1.1364,-1.2999 -3.5526,-5.72457 -5.36936,-9.83257 -4.62316,-10.45377 -4.59195,-21.955 0.0783,-28.82777 3.29768,-4.85296 6.32759,-6.27108 7.91407,-3.70411 0.4324,0.69964 -0.0663,4.96196 -1.10813,9.47183 -1.76666,7.64706 -1.72907,8.34125 0.55753,10.2991 1.34852,1.15464 2.12732,2.62446 1.73067,3.26627 -1.37143,2.219 6.8823,16.17035 13.86732,23.44004 l 7.01132,7.29708 28.3229,-0.23431 c 30.50952,-0.25238 33.96395,-0.53722 44.69242,-3.68514 3.86988,-1.1355 8.54293,-1.68636 10.38454,-1.22415 1.99714,0.50125 5.2249,-0.0501 7.99838,-1.36617 3.45226,-1.63822 6.61588,-1.99923 12.28213,-1.4016 20.80551,2.19438 64.12633,0.0552 78.29879,-3.8665 8.74793,-2.42064 60.33248,-2.44281 66.50136,-0.0287 2.29092,0.89657 7.37522,1.44288 11.29845,1.21404 6.29741,-0.36732 8.19924,0.20657 16.23263,4.89832 5.00472,2.9229 9.69289,5.31438 10.41817,5.31438 1.62809,0 9.54939,-10.59756 9.54939,-12.7757 0,-2.11556 8.41954,-3.02443 41.83581,-4.51604 27.60613,-1.23226 27.91612,-1.21555 37.56771,2.02437 5.35254,1.79679 13.52642,4.11013 18.16418,5.14077 4.63776,1.03064 10.2323,2.48963 12.4323,3.2422 2.2,0.75258 8.8,2.66062 14.66666,4.24007 5.86667,1.57947 15.20778,4.62059 20.75803,6.75804 8.76251,3.37455 11.87301,3.88629 23.62143,3.88629 9.59386,0 14.99785,0.63562 18.5753,2.18482 2.77488,1.20164 6.24524,2.64773 7.71191,3.21352 8.30165,3.20246 83.13136,6.22064 87.96949,3.54814 1.48344,-0.81942 3.29718,-1.54961 4.03051,-1.62264 2.87903,-0.28672 9.45417,-2.21717 11.69581,-3.43388 1.29938,-0.70526 5.19938,-1.64881 8.66667,-2.09678 3.46731,-0.44796 8.70419,-1.86012 11.63752,-3.13814 2.93333,-1.27801 9.83333,-2.74498 15.33333,-3.25994 7.49206,-0.70146 11.52311,-1.87014 16.07311,-4.65991 3.34021,-2.048 7.38881,-4.14123 8.99691,-4.65161 1.60808,-0.51039 3.29022,-2.38799 3.73809,-4.17244 0.49207,-1.96054 1.78125,-3.24447 3.25775,-3.24447 3.39242,0 4.34122,2.07872 3.35302,7.34623 -0.68377,3.64485 -2.26322,5.39337 -8.26032,9.14458 -6.93152,4.3357 -10.91001,5.62608 -27.82522,9.02486 -3.66667,0.73673 -8.46667,1.93645 -10.66667,2.66601 -7.94643,2.63523 -18.78024,5.50676 -24.26237,6.43081 -3.07764,0.51878 -6.37764,1.56495 -7.33334,2.32484 -2.72718,2.16846 -11.17396,3.30995 -27.07096,3.65835 -8.06666,0.1768 -15.56666,0.69321 -16.66666,1.1476 -1.1,0.45439 -4.1,-0.10667 -6.66667,-1.24668 z M 1826.6667,648.0294 c -2.678,-1.6913 -3.5018,-32.97562 -1.4275,-54.21781 1.6439,-16.83544 3.9569,-22.01524 11.218,-25.12048 4.4491,-1.90271 12.5192,-0.77194 17.4232,2.44129 2.9976,1.96409 3.1873,2.60195 1.94,6.52231 -3.0727,9.65713 -4.2628,11.41209 -13.3204,19.64163 l -9.4255,8.56364 0.7547,19.73566 c 0.4149,10.85462 0.4091,20.63614 -0.013,21.7367 -0.8675,2.26061 -4.1646,2.58209 -7.1492,0.69706 z m 89.1806,-23.02938 c -0.8689,-1.65 -2.24,-3.42759 -3.0469,-3.95019 -0.8385,-0.54313 -1.8103,-7.39747 -2.2681,-16 l -0.8012,-15.04981 3.8562,-4.44258 c 2.4628,-2.83709 3.5791,-5.31609 3.0892,-6.85973 -1.1702,-3.68694 3.169,-13.36436 5.9923,-13.36436 1.3085,0 2.64,0.75 2.9587,1.66666 0.7841,2.25571 -2.0378,19.82382 -4.7596,29.63102 -2.4944,8.98807 -1.9035,14.89643 2.2148,22.13928 1.5082,2.65283 2.3324,5.76004 1.8566,7 -1.275,3.32259 -7.201,2.82052 -9.092,-0.77029 z m -179.7264,-15.78564 c -8.4546,-3.38347 -15.5636,-22.03064 -10.1209,-26.5477 1.1,-0.91292 2,-2.64205 2,-3.84253 0,-1.20047 1.2,-2.9321 2.6667,-3.84804 1.4666,-0.91595 2.6976,-2.41027 2.7354,-3.32072 0.1067,-2.56827 10.5306,-10.32204 13.8764,-10.32204 1.6447,0 4.8798,0.65869 7.1892,1.46377 6.8123,2.37479 4.848,9.20289 -2.6476,9.20289 -5.1821,0 -10.3516,2.21896 -13.2433,5.6847 -3.2179,3.85661 -3.4567,15.13247 -0.4124,19.47865 2.2445,3.20456 2.6569,3.22538 14.8356,0.7486 3.5275,-0.71738 4.3333,-0.46212 4.3333,1.37262 0,3.42944 -7.3261,10.04877 -11.1217,10.04877 -1.8297,0 -4.1259,0.26248 -5.1025,0.58329 -0.9767,0.32082 -3.2214,0.005 -4.9882,-0.70226 z m 63.4358,-8.9676 c -1.2046,-1.33096 -2.8563,-4.33096 -3.6704,-6.66667 -1.4314,-4.1058 -5.2128,-5.97263 -5.2263,-2.58009 0,0.91666 -1.3536,3.3357 -3,5.37564 -3.9251,4.86337 -11.9069,6.35413 -15.6901,2.9304 -3.745,-3.38907 -3.2246,-6.14883 1.8722,-9.92915 3.7303,-2.76671 4.1484,-3.57685 2.63,-5.09524 -2.5104,-2.51035 -2.253,-6.12995 0.6206,-8.73055 1.9521,-1.76661 13.1698,-4.88444 17.5738,-4.88444 0.5331,0 2.6271,3.75 4.6531,8.33333 2.0261,4.58334 4.7547,9.53334 6.0635,11.00001 2.1494,2.40864 3.1668,6.45692 2.7645,11 -0.2227,2.5142 -6.1004,1.99885 -8.5909,-0.75324 z M 809.66667,582.62513 c -1.65,-0.66322 -3,-1.88748 -3,-2.72057 0,-0.83309 3.90577,-5.49801 8.6795,-10.36649 8.26086,-8.42483 11.14084,-12.82882 9.4773,-14.49236 -0.41434,-0.41435 -3.21208,-0.89208 -6.21719,-1.06164 -7.54876,-0.42594 -8.46611,-1.76344 -6.02247,-8.78084 1.12423,-3.22843 2.05278,-7.02447 2.06346,-8.43563 0.0188,-2.482 -0.0785,-2.47656 -2.9806,0.16671 -6.11704,5.57154 -13,7.51909 -13,3.67838 0,-5.9397 11.87409,-15.27934 19.42561,-15.27934 3.76427,0 9.84639,4.80348 9.88468,7.80664 0.0133,0.99364 -1.77696,4.47372 -3.97696,7.7335 -4.74175,7.02594 -5.33941,10.60384 -1.42099,8.50676 6.69438,-3.58272 13.43692,0.39824 13.40804,7.91644 -0.0144,3.74555 -6.3928,12.4119 -15.48294,21.03666 -6.43952,6.10984 -6.37648,6.08486 -10.83744,4.29178 z m -173.33334,-1.44586 c -3.33601,-3.42794 -0.80877,-11.46616 7.03968,-22.39064 2.54484,-3.54224 4.62699,-7.38336 4.62699,-8.53583 0,-1.15248 0.60979,-2.47228 1.35508,-2.93289 0.74529,-0.46062 0.97991,-1.44454 0.52136,-2.18648 -0.79819,-1.2915 -10.21293,-0.84383 -22.04512,1.04821 -10.17864,1.62763 -11.37803,-2.02776 -2.64996,-8.07631 4.13027,-2.86228 6.79239,-3.52941 15.56712,-3.90116 13.97604,-0.59212 15.78843,0.18908 17.89509,7.71334 1.46215,5.22228 1.42607,6.483 -0.24165,8.444 -3.03113,3.56418 -10.68533,19.13286 -9.828,19.9902 0.41988,0.41989 2.11253,0.0903 3.76143,-0.7326 1.64889,-0.82283 5.69798,-2.22878 8.99798,-3.12435 3.3,-0.89556 6.6,-2.07203 7.33334,-2.61435 2.10396,-1.55597 12.49662,-2.78073 15.5019,-1.82689 2.71404,0.8614 2.7131,0.87911 -0.21358,3.9944 -2.79279,2.97279 -18.02382,9.95209 -21.71858,9.95209 -0.95454,0 -4.39822,1.28875 -7.65264,2.86388 -7.35029,3.55755 -15.97653,4.65192 -18.25044,2.31538 z m 1250.22417,-3.69346 -3.2242,-2.638 5.1311,-2.16324 c 2.8221,-1.18977 7.3221,-1.98053 10,-1.75722 4.4308,0.36946 4.8689,0.76593 4.8689,4.406 0,3.86785 -0.2238,4.01305 -6.7758,4.39524 -5.1838,0.30237 -7.5334,-0.22462 -10,-2.24278 z M 294.66667,570.66668 c -1.1,-0.71088 -3.53887,-1.30169 -5.41972,-1.31292 -2.59228,-0.0155 -3.96339,-1.16051 -5.66667,-4.73232 -3.14333,-6.59164 -2.874,-8.77617 2.36455,-19.17853 4.66462,-9.26271 9.32393,-13.48063 16.83746,-15.24238 2.9353,-0.68826 3.96,-0.0281 6.88014,4.43195 6.93612,10.59405 7.08656,20.17357 0.4586,29.20267 -5.978,8.14365 -10.39956,10.09818 -15.45436,6.83153 z m 8.69646,-12.03293 c 1.79643,-1.98503 2.09348,-3.83075 1.38108,-8.58135 -0.78165,-5.21249 -1.34374,-6.05239 -4.05049,-6.05239 -5.23779,0 -11.98555,14.0336 -8.66916,18.0296 1.82628,2.20052 7.92763,0.3732 11.33857,-3.39586 z m 125.44166,10.2988 c -2.13756,-1.56302 -2.21655,-2.51687 -0.8005,-9.66667 1.96716,-9.93243 1.94046,-9.36201 0.79259,-16.93253 -1.05384,-6.95047 -1.02553,-6.98786 3.67077,-4.84808 3.42875,1.56225 5.24582,6.77313 4.00987,11.49934 -0.3904,1.49295 -0.0576,3.11758 0.73965,3.61028 2.49979,1.54495 1.76243,13.37528 -0.98882,15.86514 -2.9398,2.66049 -4.31191,2.74782 -7.42356,0.47252 z m -207.4016,-76.1817 c -0.89892,-1.08314 -1.6126,-6.1539 -1.64202,-11.66666 -0.0287,-5.36296 -0.10053,-16.35084 -0.15981,-24.41751 -0.0593,-8.06667 0.3022,-17.36667 0.80329,-20.66667 0.50111,-3.3 1.49295,-16.81233 2.20412,-30.02741 0.71116,-13.21508 1.91019,-29.41508 2.66452,-36 0.75432,-6.58492 1.37642,-16.53306 1.38244,-22.10696 0.007,-5.5739 0.705,-12.12538 1.55331,-14.55883 1.43881,-4.12739 1.28215,-4.63747 -2.33333,-7.597 L 222,322.53725 l 5.12355,-4.51672 c 2.81794,-2.48419 8.21794,-5.43255 12,-6.5519 5.92114,-1.75245 33.12109,-3.76454 47.46477,-3.51117 2.52357,0.0445 6.42357,-0.50717 8.66667,-1.22612 2.33644,-0.74887 34.54553,-1.59755 75.41168,-1.98701 177.63054,-1.69294 228.63137,-2.97252 237.66666,-5.96294 3.8641,-1.2789 6.06914,-1.30201 9.70608,-0.10173 2.96284,0.97784 8.76611,1.25985 15.66667,0.76135 33.84953,-2.44532 44.56773,-2.76044 72.01488,-2.11732 17.26628,0.40457 18.63193,0.25022 22.39367,-2.53095 2.20332,-1.62899 5.32888,-3.11031 6.9457,-3.29181 1.61682,-0.18152 5.36868,-1.03403 8.33748,-1.89448 3.88167,-1.12503 11.16371,-1.24976 25.92571,-0.4441 11.42704,0.62366 25.58536,0.60604 31.93552,-0.0397 14.37801,-1.46219 72.24243,-2.72633 102.07429,-2.23 12.46667,0.20741 25.66667,0.31411 29.33334,0.23711 33.38934,-0.70128 60.46637,-0.37494 66.9862,0.80733 9.39433,1.70352 66.71313,2.23551 83.68043,0.77665 14.3028,-1.22976 17.4445,-1.23196 89.3334,-0.0627 84.1281,1.36841 102.9512,1.43304 130.815,0.44909 14.6661,-0.51789 27.8406,-0.36983 31.0391,0.34884 8.3515,1.87645 53.7851,1.77941 67.4792,-0.14412 6.6,-0.92707 13.8,-1.66141 16,-1.63188 2.2,0.0295 27.4,0.41189 56,0.84967 33.6479,0.51505 55.7645,0.29725 62.6667,-0.6171 29.2049,-3.86892 60.9145,-5.91365 64.2258,-4.14148 1.9872,1.06352 13.6784,1.07338 42.59,0.0359 35.3792,-1.26955 41.7958,-1.17377 57.1842,0.85357 9.5333,1.25598 25.5088,2.7516 35.501,3.32362 9.9923,0.57201 20.1923,1.70042 22.6667,2.5076 2.4744,0.80717 7.1989,1.52446 10.4989,1.594 26.6026,0.56049 33.223,0.25488 38.2759,-1.76688 4.1364,-1.65504 5.7212,-1.78308 6.9483,-0.56135 1.1389,1.13404 11.113,1.60036 35.1826,1.64487 18.4763,0.0341 38.5044,0.73957 44.507,1.56758 10.0352,1.38428 17.9029,1.30043 35.7529,-0.38108 23.1593,-2.18164 26.9467,-2.18369 31.1369,-0.0169 4.7394,2.45085 5.4023,5.93031 1.7582,9.22825 -3.0012,2.71595 -6.407,2.84202 -7.8352,0.29003 -0.6991,-1.24932 -3.6236,-2.00268 -8.3996,-2.1638 -8.1786,-0.27589 -33.1503,1.02781 -39.327,2.05317 -2.2,0.36522 -7.3,0.0431 -11.3333,-0.71601 -19.1197,-3.59808 -22.5815,-3.80255 -42,-2.48072 -31.9128,2.17233 -91.9136,1.74087 -100,-0.71908 -7.6929,-2.34025 -17.8856,-2.62939 -24.8171,-0.70399 -4.7646,1.32348 -4.8268,1.43264 -5.7053,10.00744 -0.4885,4.76815 -1.4963,10.26872 -2.2395,12.22348 -1.3374,3.51783 -1.7306,12.92143 -3.1953,76.41614 -0.6884,29.84895 -1.4752,48.32968 -2.5375,59.60035 -0.753,7.99157 -6.1668,10.89529 -10.7896,5.78715 -2.1581,-2.38467 -2.2398,-3.92538 -0.9369,-17.66667 2.5348,-26.73088 2.9969,-34.626 3.4964,-59.72083 0.5975,-30.02617 2.5499,-55.84884 4.8595,-64.27372 1.5465,-5.64162 1.4766,-6.54243 -0.6936,-8.94052 -2.3872,-2.6379 -2.4335,-7.199 -0.1447,-14.24836 1.1895,-3.663 -4.3509,-6.08816 -13.4308,-5.87902 -3.5928,0.0828 -13.43,0.102 -21.8607,0.0427 -8.4305,-0.0593 -25.0226,0.53116 -36.8713,1.31208 -15.8315,1.04344 -23.7863,1.01747 -30.0049,-0.098 -10.4827,-1.88023 -7.7476,-1.92681 -37.1287,0.63244 -44.4996,3.87615 -61.6995,4.80777 -84,4.5498 -12.1,-0.13997 -35.8,-0.0348 -52.6667,0.23373 -16.8666,0.26852 -46.5666,0.45679 -66,0.41838 -19.4333,-0.0384 -46.1333,-0.0157 -59.3333,0.0504 -40.0457,0.20069 -73.2002,-0.24288 -103.3333,-1.38251 -16.0798,-0.60813 -40.2879,-0.54951 -55.1342,0.13352 -19.8866,0.91492 -28.044,0.81364 -32.8081,-0.40737 -5.0238,-1.28755 -10.1883,-1.26788 -24.8659,0.0947 -24.1576,2.24267 -66.2173,2.17498 -93.8585,-0.15106 -25.76615,-2.16826 -20.31631,-2.08091 -49.33333,-0.79068 -12.83334,0.57062 -24.04476,1.60378 -24.9143,2.2959 -0.86953,0.69214 -1.9918,3.16695 -2.49392,5.49962 -0.50212,2.33265 -1.70473,5.79186 -2.67246,7.68713 -1.44688,2.83367 -1.45284,4.37355 -0.0335,8.66667 1.16881,3.53534 1.82212,15.10392 2.02371,35.83533 0.16373,16.83803 0.76569,31.53803 1.33768,32.66667 0.572,1.12864 1.09324,5.28476 1.15833,9.23583 0.0651,3.95106 1.0892,13.55106 2.27583,21.33333 1.18661,7.78227 1.96874,18.60157 1.73805,24.04292 -0.40683,9.596 -0.53616,9.93212 -4.30316,11.18347 -6.28557,2.08797 -7.52292,-1.01968 -7.03284,-17.6635 0.34041,-11.56124 -0.0404,-15.11996 -2.12845,-19.89352 -1.39867,-3.19745 -2.26758,-7.2545 -1.9309,-9.01568 0.33667,-1.76117 0.1,-5.74508 -0.52606,-8.85313 -0.626,-3.10804 -1.45942,-20.31479 -1.85203,-38.23721 -0.66099,-30.17396 -0.51475,-33.20248 1.97561,-40.91098 2.07884,-6.43471 2.49564,-10.17912 1.83579,-16.49225 l -0.85367,-8.16748 -22.80186,0.82016 c -12.54102,0.45108 -33.00186,1.03646 -45.46852,1.30084 -67.69882,1.4357 -94.00226,2.53106 -94.04859,3.91648 -0.0268,0.79904 -2.27673,3.15737 -5,5.24077 -4.70448,3.59907 -5.41688,3.74293 -14.28475,2.88475 -20.33118,-1.96752 -71.57318,-1.97135 -83.95505,-0.007 -7.85696,1.24696 -26.96944,2.11509 -54.96881,2.49683 -23.60812,0.32188 -43.50592,0.94494 -44.21732,1.38461 -1.19563,0.73895 -2.76654,7.43736 -3.62379,15.4521 -1.7314,16.18722 -3.13504,33.94698 -3.16139,40 -0.0176,4.03333 -0.0713,14.6868 -0.1196,23.67437 -0.0505,9.41188 0.79966,21.28485 2.00486,28 1.15088,6.41243 2.7341,15.25896 3.51828,19.65896 0.78418,4.4 2.00316,8.69829 2.70885,9.55176 2.20411,2.66569 -0.58864,10.38674 -3.93339,10.87455 -6.81693,0.99421 -16.26249,-15.16772 -12.44088,-21.2871 2.09147,-3.34896 1.9067,-7.75181 -0.61429,-14.63824 -1.84025,-5.02692 -2.01083,-10.26264 -1.23257,-37.8343 0.4968,-17.6 1.48092,-35.6 2.18694,-40 0.70603,-4.4 1.49666,-9.89904 1.75696,-12.22008 0.2603,-2.32104 1.51592,-5.98516 2.79028,-8.14247 1.77783,-3.00963 2.02215,-4.80699 1.04991,-7.7237 l -1.26709,-3.8013 -49.90764,-0.31336 c -27.44919,-0.17235 -55.63155,0.30102 -62.62746,1.05193 -8.62028,0.92527 -15.85984,0.93016 -22.46241,0.0152 -5.35843,-0.74256 -10.45836,-1.07544 -11.33319,-0.73973 -2.57125,0.98668 -4.449,14.67708 -3.23281,23.57001 0.63544,4.64648 0.58649,8.63428 -0.11653,9.49164 -2.47295,3.01594 -1.77228,57.46192 0.8941,69.47855 2.83484,12.77573 4.44666,27.21679 3.56332,31.92536 -0.6974,3.71847 -1.51941,4.74201 -3.80769,4.74201 -4.44413,0 -6.11828,-2.58217 -6.11828,-9.43674 0,-3.87668 -0.74593,-6.8558 -1.97121,-7.8727 -1.55607,-1.29142 -1.80015,-3.65965 -1.15895,-11.245 0.60085,-7.10818 0.1862,-12.01686 -1.59323,-18.86064 -1.93836,-7.45505 -2.35801,-13.82558 -2.16109,-32.80634 0.13441,-12.95511 0.83841,-26.687 1.56444,-30.51532 0.72606,-3.8281 1.32007,-11.60847 1.32007,-17.28953 0,-12.55449 0.68121,-12.2134 -21.03552,-10.53276 -8.59713,0.66532 -27.03115,1.40755 -40.96448,1.64939 -13.93333,0.24185 -33.73333,1.22357 -44,2.18161 -10.26667,0.95804 -22.26667,1.88176 -26.66667,2.05271 -10.81593,0.42021 -10.4748,0.32794 -12.35724,3.3422 -1.12177,1.79625 -1.25108,3.42828 -0.39613,5 2.10249,3.86521 4.15768,35.98341 2.5654,40.09179 -1.44988,3.74096 -4.13439,63.9746 -2.93755,65.91112 0.37864,0.61265 0.0953,1.83762 -0.62956,2.72216 -0.72489,0.88454 -1.64734,7.60826 -2.04989,14.9416 -1.15495,21.04008 -1.05796,26 0.50837,26 0.60838,0 2.06478,0.95865 3.23647,2.13033 1.95156,1.95156 2.63737,1.892 8.17241,-0.70977 8.96139,-4.21235 23.9888,-5.20599 46.2374,-3.05729 11.20184,1.08182 32.10116,1.742 50.98366,1.61046 38.53882,-0.26844 38.0965,-0.27408 60.76465,0.77351 l 18.09799,0.83639 2.26608,-3.45848 c 2.2998,-3.50994 7.9096,-4.75986 9.53794,-2.12515 0.45323,0.73333 0.13864,1.33333 -0.69909,1.33333 -0.83772,0 -1.28905,0.70224 -1.00295,1.56054 0.35984,1.07952 6.04523,1.60181 18.44444,1.69441 11.74847,0.0877 18.95828,0.71492 20.92532,1.82028 5.427,3.04961 42.75475,1.93719 75.95459,-2.26357 8.83688,-1.11812 14.81339,-0.59475 20.60877,1.80476 1.51044,0.62537 2.70464,0.0389 3.69723,-1.81578 0.80637,-1.50674 2.65847,-3.37764 4.11575,-4.15754 2.1604,-1.15622 3.20101,-0.82392 5.6361,1.79978 2.01046,2.16616 4.94744,3.43459 8.98651,3.8811 7.93579,0.87726 52.19155,-1.30535 60.66667,-2.99198 8.36604,-1.66492 45.82074,-2.15534 60,-0.78564 8.65686,0.83624 11.16912,0.64754 13.33333,-1.00156 2.13749,-1.62873 2.33593,-2.36726 1,-3.7217 -0.91667,-0.92938 -1.66667,-4.83435 -1.66667,-8.67774 0,-3.84338 -0.6,-7.3588 -1.33333,-7.81202 -0.73333,-0.45323 -1.33333,-5.14261 -1.33333,-10.42083 0,-5.27823 -0.62267,-11.69282 -1.3837,-14.25464 -0.76102,-2.56183 -1.62817,-21.75787 -1.927,-42.65787 -0.29882,-20.9 -0.72616,-45.5 -0.94964,-54.66667 L 714,316.66667 h 5.33333 c 4.88868,0 5.33334,0.29639 5.33334,3.55502 0,1.95526 0.40809,3.96336 0.90689,4.46245 0.49879,0.49908 0.59224,12.09932 0.20767,25.77831 -0.38458,13.67899 -0.63358,25.47089 -0.55334,26.20423 0.0803,0.73333 0.97803,16.33333 1.9951,34.66666 1.01705,18.33334 2.49364,35.73334 3.28129,38.66667 0.78765,2.93333 1.44641,7.46334 1.46391,10.06667 0.0175,2.60333 0.73969,5.44121 1.60486,6.30639 1.20854,1.20853 1.17208,2.3223 -0.15725,4.8062 -2.94615,5.5049 -0.86887,6.64293 9.77052,5.35272 14.63705,-1.77502 59.20635,-0.84607 80.14701,1.67046 2.2,0.26439 11.16943,0.83156 19.93206,1.2604 18.49246,0.90499 29.8864,-0.83833 36.0111,-5.50988 4.04044,-3.0818 5.04239,-3.18053 44.76156,-4.4108 22.34574,-0.69213 41.82862,-1.2565 43.29528,-1.25414 1.46667,0.003 7.46667,-0.64246 13.33334,-1.43292 5.86666,-0.79047 28.06663,-1.79475 49.33333,-2.23176 21.2667,-0.437 47.3667,-1.20603 58,-1.70895 l 19.3333,-0.91439 0.4248,-11.11197 c 0.2336,-6.11159 -0.2502,-13.01159 -1.075,-15.33334 -1.8757,-5.27969 -6.6494,-29.56809 -7.9052,-40.22136 -1.04,-8.82268 0.6009,-37.69826 2.5004,-44 0.6632,-2.2 1.5879,-9.1 2.055,-15.33333 1.1419,-15.2379 2.5869,-19.54643 6.8274,-20.35706 4.5932,-0.87804 5.0274,0.94487 3.3331,13.99081 -0.7881,6.0681 -2.4214,22.43292 -3.6296,36.36625 -2.0189,23.28243 -2.024,26.03496 -0.063,34 1.1734,4.76667 2.5289,12.26667 3.0122,16.66667 0.4833,4.4 2.0136,11.57682 3.4007,15.94849 1.387,4.37168 2.8855,13.07168 3.33,19.33333 l 0.8081,11.38485 h 46.1574 c 35.0438,0 47.6645,0.43804 52.4169,1.81929 4.5593,1.32512 17.2351,1.89907 46.6666,2.11299 22.5018,0.16356 44.8384,0.98193 50.4071,1.84684 5.5,0.85421 26.8,1.87442 47.3334,2.26713 41.5081,0.79387 50.8249,1.15672 67.3333,2.62241 9.6495,0.85674 50.7124,1.76484 110,2.43267 8.0667,0.0909 21.2667,-0.0911 29.3333,-0.40431 8.0667,-0.31324 23.6667,-0.43926 34.6667,-0.28008 11,0.1592 27.5,-0.56977 36.6667,-1.61993 20.0553,-2.2976 128.3993,-1.86936 137.3578,0.54292 3.8299,1.03127 7.6074,1.02728 13.35,-0.0141 4.405,-0.79876 8.6262,-1.07084 9.3804,-0.60462 0.7544,0.46623 4.1932,0.17374 7.6418,-0.64997 8.5496,-2.04219 30.9814,-2.69212 34.27,-0.99295 4.5689,2.36075 58.9181,2.7128 70.2429,0.45502 7.4513,-1.48556 12.908,-1.6711 23.0904,-0.78514 7.3333,0.63806 19.1696,0.79591 26.3028,0.35078 11.3051,-0.70547 13.0781,-0.5263 13.8159,1.39616 2.5942,6.76045 -9.7198,9.48245 -35.452,7.83661 -14.199,-0.90816 -22.3431,-0.79517 -30.6667,0.42547 -15.7724,2.31301 -45.3869,2.24036 -65.9428,-0.16178 -13.3683,-1.5622 -19.4425,-1.70306 -26.6828,-0.6188 -9.6319,1.44243 -31.0312,2.21926 -48.7077,1.76815 -14.8582,-0.37919 -24.8919,-0.56543 -66,-1.22507 -27.0838,-0.4346 -43.7394,-0.0337 -60.6667,1.45992 -30.3516,2.67828 -29.6919,2.65712 -50.6667,1.62466 -9.9,-0.48734 -23.1,-0.39947 -29.3333,0.19524 -6.2333,0.5947 -19.1333,0.55141 -28.6667,-0.0963 -9.5333,-0.64761 -30.5333,-1.19811 -46.6666,-1.22331 -16.1334,-0.0252 -46.1334,-0.94124 -66.6667,-2.03565 -20.5333,-1.0944 -41.8333,-1.86517 -47.3333,-1.71283 -5.5,0.15235 -15.4,0.42812 -22,0.61283 -12.693,0.35521 -31.9937,-1.21797 -42,-3.4234 -3.3,-0.72733 -24.9,-1.55141 -48,-1.83131 -23.1,-0.27988 -46.8,-1.1622 -52.6667,-1.96069 -13.5,-1.83744 -119.5584,-2.95476 -137.3333,-1.4468 -7.3334,0.62213 -28.9334,1.50984 -48,1.97268 -19.0667,0.46283 -38.56669,1.35112 -43.33335,1.97396 -4.76667,0.62284 -9.86667,1.17212 -11.33334,1.22061 -1.46666,0.0485 -13.46666,0.32446 -26.66666,0.61327 -13.2,0.2888 -26.87866,0.60285 -30.397,0.69787 -4.97576,0.13438 -7.08334,0.91334 -9.48623,3.5061 -2.67389,2.88518 -4.23388,3.33326 -11.603,3.33271 -4.68257,-3.5e-4 -17.16356,0.97912 -27.73552,2.17661 -17.84313,2.0211 -21.28576,2.01762 -48,-0.0485 -27.17401,-2.10177 -34.54673,-2.42863 -52.11159,-2.31029 -4.03333,0.0272 -20.53333,-0.0439 -36.66666,-0.15783 -46.10803,-0.32573 -59.77695,0.0836 -83.33334,2.49528 -15.10058,1.54601 -36.8442,2.36313 -69.33333,2.60555 -26.03333,0.19424 -54.86513,0.85268 -64.07067,1.4632 -9.20553,0.61052 -23.30553,0.60876 -31.33333,-0.004 -16.02748,-1.22322 -57.28013,-1.89328 -121.9536,-1.98088 -24.27225,-0.0329 -46.99893,-0.71892 -53.80077,-1.62408 -12.96123,-1.72483 -34.95194,-2.22782 -53.5083,-1.22388 -10.28346,0.55634 -12.75949,1.17086 -17.3095,4.29601 -6.03923,4.14799 -7.70728,4.43805 -9.95398,1.73096 z M 1519.0692,469.24836 c -2.5505,-0.96705 -2.9335,-2.11464 -2.9513,-8.84644 -0.013,-4.25439 -1.0256,-12.53524 -2.2539,-18.40191 -4.5231,-21.60337 -3.7525,-47.69221 2.3627,-80 0.8329,-4.4 1.6998,-11.82765 1.9266,-16.50589 0.2734,-5.63664 1.1704,-9.34348 2.6595,-10.98888 1.8623,-2.05786 2.1041,-4.17322 1.4125,-12.35474 -0.6728,-7.95933 -0.4396,-10.19944 1.2038,-11.56325 1.664,-1.381 2.4149,-1.31462 4.0912,0.36164 1.6081,1.60808 2.0361,5.19937 1.9745,16.56764 -0.088,16.32037 -3.6556,51.71367 -5.5732,55.29673 -1.3543,2.53035 -1.7676,47.6326 -0.4676,51.02024 0.5761,1.50168 1.8828,1.83248 4.8747,1.23411 l 4.0874,-0.81749 -0.9029,7.68182 c -0.4965,4.225 -1.4901,8.77928 -2.208,10.12063 -0.7179,1.34133 -1.3144,4.72824 -1.3256,7.52646 -0.013,2.79821 -0.4612,5.68765 -1,6.42098 -2.3453,3.19223 -5.088,4.31848 -7.9104,3.24835 z m -210.1762,-8.18204 c -1.0572,-1.68647 -2.6322,-9.06631 -3.5001,-16.39964 -0.868,-7.33334 -2.0944,-15.43334 -2.7255,-18 -2.6359,-10.71967 -0.6321,-81.82186 2.7993,-99.33334 0.7185,-3.66667 1.257,-7.26667 1.1967,-8 -0.916,-11.14433 -0.7279,-12 2.6378,-12 4.8615,0 6.7724,6.12835 3.6224,11.61692 -2.1742,3.78844 -2.1841,4.29568 -0.1436,7.40984 1.6544,2.52487 1.9868,5.01086 1.3585,10.15812 -2.6688,21.86204 -1.7424,86.14846 1.2413,86.14846 1.2052,0 1.6404,3.5284 1.607,13.02942 -0.027,7.71539 0.6891,15.06203 1.7563,18.01312 1.5438,4.26933 1.5241,5.24799 -0.1372,6.82749 -3.8003,3.61321 -7.6485,3.82305 -9.7129,0.52961 z m 638.4295,-3.74484 c -2.3493,-2.59612 -2.3157,-3.05766 1.0923,-15 3.8188,-13.3815 5.2843,-34.20566 2.7436,-38.98814 -0.7791,-1.46666 -2.8124,-9.66812 -4.5183,-18.22544 -2.886,-14.4767 -2.9958,-16.65585 -1.5793,-31.33333 0.8373,-8.67601 2.234,-20.84363 3.1037,-27.03915 1.1932,-8.50039 1.2035,-11.39052 0.041,-11.77777 -0.8468,-0.28226 -1.5396,-1.32779 -1.5396,-2.3234 0,-3.19915 2.4906,-3.47694 5.3688,-0.59879 l 2.7993,2.79937 1.5416,-4.08408 c 0.8479,-2.24624 1.9747,-4.08408 2.5039,-4.08408 1.9898,0 2.622,2.85659 1.051,4.74946 -2.8134,3.39 -3.9668,12.46904 -4.7321,37.25055 -0.7733,25.0392 -0.087,31.92289 4.7881,48 3.3299,10.98193 4.1436,34.75128 1.4151,41.33333 -0.912,2.2 -2.5232,7.26563 -3.5803,11.25693 -2.9285,11.05702 -5.7973,13.26045 -10.4996,8.06454 z M 627.87527,446.4336 c -1.54923,-2.89475 -1.11823,-15.02439 1.21493,-34.19182 1.05505,-8.66754 0.19376,-10.96721 -3.0876,-8.24393 -4.06136,3.37063 -12.11519,6.66883 -16.28452,6.66883 -2.41161,0 -4.38475,-0.26095 -4.38475,-0.57987 0,-2.47332 2.95138,-7.42013 4.42702,-7.42013 1.00449,0 2.85106,-1.1323 4.1035,-2.51622 1.25243,-1.38392 5.80074,-4.09752 10.10734,-6.03021 6.58237,-2.95399 7.97765,-4.18536 8.75552,-7.72692 0.50892,-2.31712 2.08758,-6.28227 3.50814,-8.81144 3.69535,-6.57927 2.61454,-8.20416 -4.46489,-6.71256 -9.59237,2.02107 -28.13201,3.86213 -30.69627,3.04828 -2.44534,-0.77613 -3.20653,-5.26347 -1.37985,-8.13456 1.06105,-1.66768 18.23876,-4.44971 27.47493,-4.44971 4.01651,0 7.51624,-1.1883 12.14484,-4.12366 5.4693,-3.46854 7.15247,-3.93808 10.59438,-2.95551 5.49253,1.56799 5.72466,4.81924 1.03456,14.48975 -5.4354,11.2072 -7.42556,16.55085 -6.50643,17.47 0.43728,0.43728 3.48373,0.118 6.76989,-0.70943 8.61324,-2.16884 16.71052,-1.94009 17.6463,0.49851 1.41057,3.67589 -0.82311,8.71858 -4.47736,10.10792 -1.95283,0.74246 -6.88607,1.6723 -10.96276,2.06632 -11.88999,1.14917 -12.27411,1.89173 -14.12852,27.31236 -0.65266,8.94677 -0.48424,13.10174 0.55712,13.74534 2.4709,1.52711 1.68534,5.81215 -1.4708,8.0228 -4.20339,2.94416 -8.66552,2.59376 -10.49472,-0.82414 z m -326.2086,-0.64996 c -2.41179,-0.97318 -2.04522,-5.04131 0.66666,-7.39838 1.28334,-1.11542 5.5763,-2.39116 9.53991,-2.83496 11.73867,-1.31437 17.18407,-9.15965 10.79343,-15.55029 -2.06176,-2.06176 -4.44444,-2.66667 -10.50384,-2.66667 -11.6241,0 -20.57892,-4.74908 -23.25563,-12.33333 -0.52896,-1.49875 -2.2108,-2.33333 -4.70209,-2.33333 -4.80334,0 -6.2211,-1.69407 -7.82095,-9.34519 -2.87435,-13.74617 2.0382,-22.04729 14.94917,-25.26084 3.66667,-0.91263 8.92882,-2.49963 11.69366,-3.52665 6.76953,-2.51462 15.63968,-2.485 15.63968,0.0521 0,1.25565 1.72925,2.06264 5,2.33333 3.97317,0.32884 5,0.96147 5,3.0805 0,2.19668 -0.93998,2.69368 -5.33334,2.81992 -2.93333,0.0843 -8.01784,0.89364 -11.2989,1.79854 -3.28106,0.90491 -8.10234,1.80466 -10.71394,1.99944 -6.13154,0.45731 -11.06438,2.01942 -12.30008,3.89514 -0.53877,0.81782 -0.98877,4.02313 -1,7.12289 -0.0171,4.70568 0.58479,6.02069 3.64626,7.96707 2.01666,1.28213 5.63064,4.14597 8.03105,6.36408 4.05777,3.7496 5.24224,4.07976 16.86008,4.69958 15.19328,0.81059 17.38203,2.27296 18.57337,12.40939 0.848,7.2152 -0.86389,16.18048 -3.61492,18.93151 -5.62174,5.62174 -23.58885,10.30233 -29.84958,7.77606 z m 536.42409,-15.4503 c -3.42605,-4.09061 -3.58941,-4.89345 -2.91656,-14.33333 0.39203,-5.5 1.10385,-12.25 1.58183,-15 1.0243,-5.89325 0.28978,-6.11419 -5.54122,-1.66667 -5.92717,4.52088 -17.47576,4.64803 -25.21481,0.27762 -4.81961,-2.72174 -5.37527,-3.58654 -5.76868,-8.97807 -0.43475,-5.95803 1.97864,-20.77736 3.79441,-23.29955 0.52795,-0.73333 1.35794,-3.43333 1.84443,-6 1.02524,-5.40898 4.96103,-10.66666 7.98483,-10.66666 3.423,0 3.95076,5.8808 1.10509,12.3139 -1.43159,3.23632 -3.0266,10.40598 -3.54448,15.93256 l -0.9416,10.04834 4.263,0.8526 c 8.04664,1.60933 11.84057,0.97534 14.8456,-2.48074 1.59407,-1.83333 3.65468,-3.33333 4.57916,-3.33333 2.53064,0 3.48281,-2.29415 4.36764,-10.52327 0.66073,-6.1449 1.27895,-7.54066 3.4706,-7.83561 1.93996,-0.26108 3.31633,1.01067 5.05063,4.66667 2.60046,5.48193 2.47288,19.36569 -0.30823,33.54086 -2.02457,10.3192 -1.75939,14.00606 1.2576,17.48468 1.46667,1.69108 2.66667,4.1829 2.66667,5.53735 0,2.86824 -4.51308,7.79599 -7.13996,7.79599 -0.99364,0 -3.43982,-1.95 -5.43595,-4.33334 z M 451.51315,425.23657 C 449.58092,423.71668 448,421.56417 448,420.45321 c 0,-1.11095 2.12199,-5.81437 4.71553,-10.45207 2.99295,-5.35189 5.00839,-11.0323 5.51723,-15.54998 0.44092,-3.9148 1.31376,-8.1187 1.93963,-9.342 0.62586,-1.2233 0.76952,-4.06626 0.31924,-6.3177 -1.02498,-5.12482 -2.20151,-5.0065 -18.75326,1.88576 -7.46372,3.10795 -10.33416,1.96839 -9.20926,-3.65608 1.1332,-5.66598 1.51373,-5.95717 12.75522,-9.76044 14.82499,-5.01565 19.48043,-5.48109 21.27546,-2.12708 0.88442,1.65258 2.27825,2.46111 3.46054,2.00742 1.56438,-0.60031 2.03339,0.59886 2.23576,5.71632 0.53104,13.42865 -0.53598,22.29122 -3.76484,31.27038 -1.28128,3.56311 -1.93769,6.87027 -1.4587,7.34927 0.479,0.47899 3.74262,-0.17865 7.2525,-1.46143 3.5099,-1.28278 8.48162,-2.41105 11.04828,-2.50728 4.46994,-0.16758 4.65795,0.012 4.45987,4.2522 -0.22345,4.78356 -3.41872,8.12792 -7.83167,8.19711 -1.48781,0.0233 -6.88781,1.82617 -12,4.00633 -11.08826,4.72874 -13.81548,4.91687 -18.44838,1.27263 z m 1351.86295,-3.54493 c -5.979,-1.517 -11.1176,-7.05576 -12.712,-13.70231 -2.0118,-8.38633 -1.3177,-11.71432 5.8378,-27.98932 2.005,-4.56056 11.1257,-15.44929 15.1485,-18.08512 4.3412,-2.84449 11.1676,-1.58799 13.1877,2.42739 0.8276,1.64508 2.7827,5.5227 4.3447,8.61692 1.562,3.09422 4.0743,6.28642 5.5828,7.09378 3.7031,1.98182 7.9011,12.19855 7.9011,19.22894 0,5.29641 -0.5538,6.2006 -7.3576,12.01329 -10.5462,9.00989 -22.3067,12.83876 -31.933,10.39643 z m 26.8332,-18.44402 c 4.202,-4.54092 1.9624,-12.79546 -4.7001,-17.3227 -2.6372,-1.79203 -5.4627,-3.25824 -6.2787,-3.25824 -0.8161,0 -2.5937,-1.22642 -3.9502,-2.72536 -2.9602,-3.27086 -7.124,-2.94056 -9.1442,0.72536 -0.8081,1.46666 -1.8472,2.96666 -2.3089,3.33333 -1.5868,1.26029 -4.0639,15.33844 -3.6124,20.53163 0.4609,5.30233 1.3075,6.14764 8.4519,8.44013 3.3589,1.07783 5.1752,0.65053 11.3333,-2.66637 4.0333,-2.17244 8.6275,-5.34844 10.2093,-7.05778 z m -225.8558,11.45508 c -2.3724,-0.5634 -5.5031,-2.45197 -6.9572,-4.19685 -5.078,-6.09315 -1.6051,-22.30033 8.4968,-39.65135 1.0072,-1.73002 3.5745,-4.73768 5.705,-6.68368 2.1306,-1.946 4.2738,-4.58052 4.7627,-5.85449 0.6691,-1.74345 2.4337,-2.31632 7.1355,-2.31632 5.6377,0 6.7577,0.55239 11.4894,5.66667 2.8835,3.11666 6.1387,7.76666 7.2336,10.33333 2.7934,6.54744 1.8502,20.14112 -1.7336,24.98564 -3.6486,4.9324 -15.2422,13.66593 -18.1524,13.67431 -1.2833,0.004 -2.3333,0.54802 -2.3333,1.20961 0,1.26023 -7.3341,4.22936 -9.8656,3.99396 -0.8073,-0.0751 -3.4087,-0.59744 -5.7809,-1.16083 z m 21.2182,-15.70269 c 7.8188,-8.17921 9.8156,-14.30215 5.7616,-17.66667 -1.1,-0.91292 -2,-3.26638 -2,-5.22992 0,-8.6413 -8.1384,-9.31718 -14.3813,-1.19437 -2.3569,3.06665 -4.2853,6.26207 -4.2853,7.10092 0,0.83887 -1.5,2.93437 -3.3334,4.65671 -2.7462,2.58 -3.3333,4.38206 -3.3333,10.23241 v 7.10092 h 8.3961 c 7.9635,0 8.6423,-0.25759 13.1756,-5 z M 1202,413.66666 c -5.9621,-1.10354 -13.6495,-4.829 -19,-9.2077 l -5.6667,-4.63748 v -10.98251 c 0,-10.85795 0.054,-11.03463 4.7805,-15.5774 2.6292,-2.52719 5.6507,-6.25672 6.7145,-8.28785 2.636,-5.03324 12.0794,-11.64038 16.6372,-11.64038 2.7568,0 4.7081,1.30366 7.4666,4.98858 2.054,2.74372 7.0672,8.44704 11.1405,12.67405 9.148,9.49331 12.9697,18.55297 10.323,24.47139 -2.8299,6.32782 -5.2967,8.56568 -14.0439,12.74009 -9.8023,4.67799 -14.7004,6.13504 -18.3517,5.45921 z m 18.8712,-17.87616 4.8235,-4.93964 -3.7518,-6.42542 c -4.1107,-7.03999 -10.5867,-13.75876 -13.2617,-13.75876 -0.9369,0 -2.0173,-1.2 -2.4009,-2.66667 -2.3431,-8.96003 -15.7708,4.04971 -20.2466,19.61631 -1.7148,5.96398 5.6546,13.01204 16.5514,15.82961 7.1127,1.83915 10.3303,0.49213 18.2861,-7.65543 z m -226.20453,12.82428 c -2.56667,-1.78996 -5.71298,-3.99032 -6.99179,-4.8897 -4.59669,-3.23284 -6.02835,-14.71455 -2.54264,-20.39174 0.45025,-0.73333 0.90425,-2.8793 1.00888,-4.76882 0.10467,-1.88954 2.36569,-6.28548 5.02456,-9.7688 2.65888,-3.48331 4.83432,-6.89078 4.83432,-7.57214 0,-0.68136 2.74707,-3.94701 6.1046,-7.25701 5.6646,-5.58444 13.2465,-9.96656 17.2439,-9.96656 3.3056,0 7.4588,4.73761 8.1821,9.33333 0.4039,2.56667 3.442,10.23242 6.7512,17.03498 5.6504,11.61521 5.9603,12.81994 5.09,19.78545 -0.7438,5.95359 -1.8914,8.48629 -5.8159,12.83552 -6.4947,7.19756 -11.3636,9.024 -23.8464,8.94533 -8.7738,-0.0553 -11.09685,-0.56796 -15.04283,-3.31984 z m 25.84683,-8.7325 c 10.4497,-8.21975 9.7504,-20.0914 -1.8902,-32.0862 -6.0723,-6.25706 -12.5886,-7.14778 -14.55,-1.98886 -0.6567,1.7273 -3.0419,6.14366 -5.30034,9.81414 -3.31181,5.3824 -4.10629,8.12837 -4.10629,14.19278 0,6.99907 0.21628,7.5192 3.12668,7.5192 1.71968,0 4.21265,1.2 5.53995,2.66667 3.3313,3.68104 12.4301,3.61869 17.1802,-0.11773 z m 376.0452,1.58786 c -13.2003,-5.99524 -19.0215,-21.60261 -12.0094,-32.19872 5.1371,-7.76258 11.4012,-11.93808 17.9099,-11.93808 3.0475,0 5.5408,0.63542 5.5408,1.41203 0,0.77661 0.5,1.10303 1.1111,0.72537 0.611,-0.37766 0.8332,-2.57954 0.4936,-4.89308 -0.6431,-4.38146 1.0848,-6.51878 5.3009,-6.55724 2.9484,-0.0269 10.8168,11.68136 9.9857,14.85918 -0.3525,1.34809 -0.1669,2.74404 0.4124,3.10209 2.167,1.33924 6.4058,12.25481 7.2946,18.78455 1.14,8.37488 -2.4364,15.55262 -8.8662,17.79402 -6.5893,2.29703 -20.9873,1.71943 -27.1734,-1.09012 z m 23.9254,-8.81136 c 3.3059,-3.30597 3.9002,-7.20697 1.6264,-10.67714 -1.1608,-1.77163 -2.1105,-4.66879 -2.1105,-6.43812 0,-4.98687 -1.3464,-5.66375 -16.6667,-8.37898 -3.324,-0.58912 -4.9845,0.2005 -9.8257,4.67199 -5.0076,4.62517 -5.6973,5.89263 -4.9113,9.02421 1.481,5.90143 5.9086,11.13927 9.4158,11.13927 1.7402,0 3.5347,0.6 3.9879,1.33333 1.3431,2.17312 16.1777,1.63175 18.4841,-0.67456 z M 1111,312.4503 c -0.9167,-0.36988 -1.6667,-2.72252 -1.6667,-5.22807 0,-3.57268 0.5418,-4.55556 2.5113,-4.55556 2.5825,0 4.0302,3.88006 3.1091,8.33334 -0.4961,2.39872 -1.076,2.61145 -3.9537,1.45029 z M 288.26667,277.06667 c -0.88,-0.88 -1.6,-3.93382 -1.6,-6.78628 0,-5.0092 -3.65694,-10.11365 -7.33334,-10.23606 -0.73333,-0.0244 -2.98333,-2.11232 -5,-4.63979 -6.7072,-8.40605 -3.77889,-20.73787 4.9244,-20.73787 5.25719,0 7.40266,-4.59334 7.45619,-15.96334 0.0291,-6.17503 0.78039,-11.31916 1.95275,-13.36999 1.04802,-1.83333 1.92677,-4.6962 1.95274,-6.36192 0.07,-4.49132 6.5833,-13.63808 9.7114,-13.63808 2.43711,0 2.57032,0.59754 1.70912,7.66666 -0.5137,4.21667 -1.48284,8.23667 -2.15364,8.93334 -0.67078,0.69667 -1.21962,4.48611 -1.21962,8.42099 0,3.93488 -0.62996,8.33141 -1.39991,9.77008 -0.88293,1.64976 -1.06141,6.78753 -0.48331,13.91233 0.8632,10.63851 1.09552,11.2966 3.98788,11.2966 1.68922,0 3.44211,0.6 3.89534,1.33333 1.26284,2.04331 9.59344,1.58739 16.62453,-0.90982 5.38792,-1.91363 6.93227,-1.9878 10.51228,-0.50491 2.30808,0.95604 4.16332,2.41547 4.12275,3.24316 -0.11187,2.28264 -6.16699,6.59628 -17.83615,12.70643 -5.79409,3.03388 -13.40897,8.20466 -16.92195,11.49064 -6.48316,6.06424 -10.01438,7.26158 -12.90146,4.3745 z m 12.73396,-19.4 c 0.32549,-0.97757 -0.59355,-1.66666 -2.22286,-1.66666 -1.63777,0 -2.77777,0.86092 -2.77777,2.09776 0,2.4505 4.16059,2.09182 5.00063,-0.4311 z m 509.98533,5.27692 c -1.51547,-1.31434 -2.95727,-4.16434 -3.20401,-6.33333 -0.43438,-3.81845 -0.69815,-3.95647 -8.3126,-4.34935 -6.6671,-0.344 -8.71514,-1.1032 -13.45626,-4.9882 -3.07574,-2.52033 -5.98694,-4.18774 -6.46934,-3.70534 -0.48239,0.4824 -0.87708,0.21249 -0.87708,-0.59979 0,-0.81227 0.6,-1.84768 1.33333,-2.30091 0.73333,-0.45322 1.33333,-1.9772 1.33333,-3.38661 0,-3.4342 4.76034,-4.49331 15.9714,-3.55341 5.88566,0.49344 9.53619,0.23244 10.5208,-0.75218 0.92518,-0.92517 1.52371,-6.94328 1.54898,-15.57446 0.0424,-14.49299 1.67909,-30.70519 3.83058,-37.94409 3.75187,-12.62344 6.05447,-18.88573 7.23103,-19.66589 4.51267,-2.99228 7.60199,6.82272 4.36876,13.87987 -2.12745,4.6436 -2.85693,11.10248 -4.55492,40.33011 -0.60336,10.38578 -0.57316,19.25816 0.0681,20 0.63388,0.73333 5.77163,1.19845 11.41724,1.0336 13.03742,-0.38071 18.9314,1.36834 18.9314,5.61794 0,3.24094 -6.75838,10.01512 -9.99176,10.01512 -3.97245,0 -14.20672,5.4892 -18.52526,9.93612 -5.1868,5.34099 -7.21427,5.76611 -11.16368,2.3408 z M 250.20511,152.58096 c -6.73896,-6.63221 -7.53844,-8.00088 -7.53844,-12.90533 0,-5.81416 -1.72538,-12.56595 -4.80006,-18.78368 -2.26994,-4.59036 -2.60733,-24.891948 -0.41366,-24.891948 2.83465,0 6.45869,6.039478 6.50269,10.836738 0.0244,2.66021 0.94436,5.58368 2.04436,6.4966 1.1,0.91291 2,3.10521 2,4.87177 0,4.17501 3.17393,5.30951 7.29672,2.60816 1.80187,-1.18063 5.95368,-2.1466 9.22627,-2.1466 4.83993,0 6.46574,0.6555 8.71357,3.51315 5.66932,7.20737 2.14568,24.81317 -6.96893,34.82018 -4.27644,4.69515 -7.78147,3.73086 -16.06252,-4.41904 z m 13.4419,-8.68625 c 2.02234,-3.96367 2.19715,-12.75496 0.2772,-13.94154 -0.775,-0.47899 -2.86586,-0.50526 -4.64636,-0.0584 -4.20054,1.05427 -5.75557,6.63071 -2.76921,9.93061 1.18692,1.31152 2.15803,3.73734 2.15803,5.3907 0,3.7791 2.75029,3.04939 4.98034,-1.32138 z m 28.91091,8.14683 c -5.19536,-2.10175 -9.89125,-9.15411 -9.89125,-14.85483 0,-6.47304 5.72893,-18.25908 9.56512,-19.67818 3.95126,-1.46167 13.95801,0.31328 16.93008,3.00297 3.4688,3.13922 4.621,11.27049 2.13472,15.06505 -1.07979,1.64796 -1.96326,4.19741 -1.96326,5.66543 0,3.30724 -8.59746,12.12181 -11.7111,12.00684 -1.2589,-0.0465 -3.53783,-0.58976 -5.06431,-1.20728 z m 7.77003,-12.37487 c 1.19402,-0.91667 2.57429,-3.91033 3.06725,-6.65259 1.07689,-5.99056 -1.22327,-7.55235 -6.98088,-4.73996 -3.03027,1.48018 -3.67479,2.58627 -3.36701,5.77824 0.54425,5.6445 1.29106,7.28098 3.32268,7.28098 0.98285,0 2.76393,-0.75 3.95796,-1.66667 z m 575.08098,5.36999 c -1.14157,-1.62983 -2.08108,-3.87983 -2.08778,-5 -0.007,-1.12016 -1.48234,-5.03666 -3.27916,-8.70332 -1.79684,-3.66667 -3.99138,-9.83698 -4.87676,-13.71181 -0.88538,-3.87483 -3.00976,-8.55574 -4.72084,-10.40203 -1.71108,-1.84629 -3.11106,-3.70326 -3.11106,-4.12659 0,-0.71088 5.53955,-7.575314 11.91086,-14.759574 4.13449,-4.662042 9.32473,-3.911329 15.30577,2.21382 4.81181,4.927741 5.04855,5.561822 4.31443,11.556184 -0.42722,3.48829 -1.39647,6.96208 -2.15391,7.71951 -0.75743,0.75743 -1.37715,2.72174 -1.37715,4.36513 0,1.64339 -0.60426,3.36144 -1.34281,3.81788 -2.66616,1.64778 -5.53809,8.7961 -4.18767,10.42326 0.71704,0.86398 1.2667,1.87088 1.22146,2.23755 -0.21556,1.74686 2.16597,7.57077 3.90854,9.55819 1.72947,1.97246 1.63595,2.53968 -0.82437,5 -3.56747,3.56746 -6.10747,3.51252 -8.69955,-0.1882 z m 3.82012,-37.35171 c 0.89567,-5.60118 -1.43661,-10.28345 -4.25473,-8.541758 -1.9484,1.204178 -3.03879,10.244988 -1.56724,12.994608 2.01731,3.76937 4.85415,1.59965 5.82197,-4.45285 z M 327.634,140.82855 c -2.34504,-2.17332 -3.71816,-5.21567 -4.36289,-9.66667 -0.51746,-3.57237 -1.38411,-7.09521 -1.9259,-7.82854 -0.99666,-1.34903 -2.72152,-10.5474 -3.12528,-16.66667 -0.29297,-4.44032 4.10492,-5.09218 8.25708,-1.22386 2.53408,2.36086 2.93526,3.71839 2.22215,7.51959 -0.91191,4.86085 1.81348,9.70427 5.46057,9.70427 2.50927,0 4.2181,3.84831 5.28707,11.9066 0.70908,5.34537 0.48733,7.31684 -0.92349,8.21021 -3.24439,2.05446 -7.36046,1.3155 -10.88931,-1.95493 z m 43.03267,1.63064 c 0,-0.84744 -1.59414,-3.63081 -3.54251,-6.18528 -2.72365,-3.57089 -3.49133,-5.99712 -3.32116,-10.49636 0.15653,-4.1384 -0.36784,-6.07799 -1.79083,-6.62404 -2.91812,-1.11979 -2.48008,-3.72617 1.40154,-8.3392 3.8583,-4.58534 10.8071,-6.52699 15.11256,-4.22278 1.54389,0.82626 2.80706,2.40002 2.80706,3.49723 0,1.09721 0.9,2.3403 2,2.76241 1.57983,0.60623 2,3.37826 2,13.19471 0,11.83726 -0.16678,12.55844 -3.51314,15.19068 -3.76248,2.95958 -11.15352,3.76976 -11.15352,1.22263 z m 5.11288,-18.63874 c -0.24542,-1.73458 -1.04622,-3.03547 -1.77955,-2.89087 -1.70992,0.33716 -2.46343,3.93957 -1.40239,6.7046 1.20486,3.13979 3.73647,0.10552 3.18194,-3.81373 z m -28.22214,15.37333 c -1.81132,-1.81132 -3.70029,-4.9149 -4.19773,-6.89685 -0.49744,-1.98195 -1.37951,-3.90956 -1.96015,-4.28357 -1.70745,-1.09983 -5.70454,-18.89515 -5.50101,-24.49082 l 0.18711,-5.144131 -5.04282,0.69014 c -6.8476,0.937141 -20.09221,4.291741 -25.35752,6.422571 -3.32932,1.34734 -4.67612,1.38472 -5.89717,0.16367 -2.56936,-2.56936 0.63868,-7.620721 7.11291,-11.199966 4.37024,-2.416075 5.77062,-3.986252 5.78624,-6.487834 0.0272,-4.349963 4.82242,-5.123959 8.56408,-1.382312 1.51176,1.511762 3.32754,2.748658 4.03508,2.748658 1.61397,0 4.20149,-4.70085 3.73157,-6.779321 -0.74556,-3.29771 3.15224,-2.588897 7.01723,1.276079 3.50644,3.506452 5.21438,4.122116 12.7658,4.601708 9.74186,0.618708 12.67202,2.30528 10.3168,5.938232 -1.08899,1.679775 -2.96947,2.199663 -7.00124,1.935599 -3.62095,-0.237157 -5.7449,0.244973 -6.1901,1.405134 -0.87704,2.285516 3.88487,22.248473 6.2538,26.217353 1.00084,1.67678 3.46971,4.73276 5.48638,6.79106 4.25289,4.34069 4.59106,6.75218 1.33333,9.50813 -3.54772,3.00127 -7.79107,2.618 -11.44259,-1.03353 z m 470.74372,-6.6499 c -3.88512,-4.45395 -5.03537,-9.01198 -4.06356,-16.10221 l 0.79238,-5.78099 -4.18164,0.83633 c -3.31699,0.6634 -4.18164,0.3874 -4.18164,-1.33476 0,-3.41485 12.16501,-15.184525 16.66666,-16.12503 2.2,-0.459635 6.1634,-1.473496 8.80756,-2.253027 8.75559,-2.581255 12.41695,1.785481 12.47846,14.882477 0.0519,11.04357 -10.58691,27.01776 -18.98488,28.50595 -3.56648,0.632 -4.90875,0.15085 -7.33334,-2.62874 z m 10.41699,-12.60073 c 2.642,-2.91938 5.89559,-11.12027 5.92847,-14.94315 0.0237,-2.76503 -6.4871,-3.29282 -9.04659,-0.73333 -1.80772,1.80772 -2.23453,18.4 -0.47332,18.4 0.61968,0 2.23583,-1.22559 3.59144,-2.72352 z m -434.64592,9.97993 c -3.47229,-5.29941 -2.27116,-10.31938 2.71085,-11.32955 5.57483,-1.13037 7.21695,-2.30802 7.21695,-5.17562 0,-3.29646 3.2092,-5.71526 6.88187,-5.18693 2.26406,0.3257 3.32584,1.69795 4.20584,5.43569 1.38904,5.89975 2.09249,6.08747 6.24562,1.66667 1.90738,-2.0303 4.6043,-3.33334 6.89908,-3.33334 5.8006,0 4.97907,4.92247 -1.95774,11.73044 -4.51478,4.43092 -6.8338,5.68778 -10.96778,5.94428 -3.39904,0.21091 -5.31236,-0.26076 -5.44132,-1.34138 -0.10933,-0.91667 -0.2739,-2.3084 -0.36557,-3.09274 -0.29356,-2.51177 -6.11404,-0.70699 -6.64193,2.05949 -0.46634,2.4438 -3.75078,5.89298 -5.70472,5.99084 -0.46566,0.0233 -1.85218,-1.49221 -3.08115,-3.36785 z m 394.58316,-5.58974 c -0.43933,-2.75 -1.3752,-5.9 -2.07968,-7 -0.70448,-1.1 -1.93089,-3.65 -2.72537,-5.66667 -1.77232,-4.49877 -2.46627,-4.52554 -8.64383,-0.33333 -5.97476,4.05458 -8.53981,4.2285 -8.53981,0.57901 0,-4.03024 2.19068,-7.48926 8.15668,-12.87919 5.01596,-4.531616 5.29537,-5.190403 5.19328,-12.244558 -0.0593,-4.100397 0.28661,-9.126292 0.76877,-11.168655 0.61283,-2.595813 0.18597,-4.476597 -1.41832,-6.249316 -1.26224,-1.39476 -1.90079,-3.173735 -1.419,-3.953279 0.98683,-1.596726 9.99041,-1.966432 10.16393,-0.41735 0.0616,0.55 0.3287,5.954024 0.59351,12.008943 0.26481,6.054918 0.88977,11.669553 1.38877,12.476967 0.55575,0.899202 2.87396,1.153541 5.9829,0.656401 4.33268,-0.692823 5.20252,-0.411739 5.9427,1.920351 1.02262,3.221986 -1.37745,6.604005 -4.68656,6.604005 -4.71146,0 -5.49234,3.104051 -2.81926,11.206691 1.38006,4.18327 3.52334,8.3475 4.76284,9.25383 4.39449,3.21334 -1.16602,10.10803 -8.2165,10.18794 -0.88342,0.01 -1.9657,-2.23179 -2.40505,-4.98179 z"
       id="path280" />
  </g>
</svg>
