<?xml version="1.0" encoding="UTF-8" standalone="no"?>
<!-- Created with Inkscape (http://www.inkscape.org/) -->

<svg
   version="1.1"
   id="svg345"
   width="490.66666"
   height="838.66669"
   viewBox="0 0 490.66666 838.66669"
   sodipodi:docname="stack7.png"
   xmlns:inkscape="http://www.inkscape.org/namespaces/inkscape"
   xmlns:sodipodi="http://sodipodi.sourceforge.net/DTD/sodipodi-0.dtd"
   xmlns="http://www.w3.org/2000/svg"
   xmlns:svg="http://www.w3.org/2000/svg">
  <defs
     id="defs349" />
  <sodipodi:namedview
     id="namedview347"
     pagecolor="#ffffff"
     bordercolor="#000000"
     borderopacity="0.25"
     inkscape:showpageshadow="2"
     inkscape:pageopacity="0.0"
     inkscape:pagecheckerboard="0"
     inkscape:deskcolor="#d1d1d1"
     showgrid="false" />
  <g
     inkscape:groupmode="layer"
     inkscape:label="Image"
     id="g351">
    <path
       style="fill:#000000;stroke-width:1.33333"
       d="m 124.70356,774.33335 c -3.86489,-11.79582 -3.24532,-25.39 1.5884,-34.85148 1.43642,-2.81164 1.60654,-4.64406 0.63008,-6.78716 -0.92812,-2.03701 -0.82229,-5.15234 0.34572,-10.177 0.98689,-4.24542 1.23341,-8.45752 0.59586,-10.18097 -0.5981,-1.61681 -0.4454,-7.904 0.33932,-13.97152 2.88426,-22.30136 3.18775,-26.20145 2.29779,-29.52915 -0.88819,-3.32104 -0.61472,-10.9228 1.05276,-29.26436 0.50506,-5.55543 0.18565,-11.78223 -0.82075,-16 -1.31533,-5.51251 -1.30631,-8.92171 0.0447,-16.90503 1.87895,-11.10278 1.742,-47.20468 -0.19279,-50.81986 -0.71565,-1.3372 -0.73917,-8.16868 -0.0576,-16.72055 0.63385,-7.95278 0.84912,-14.97436 0.47837,-15.60351 -0.37075,-0.62916 0.43622,-4.4104 1.79326,-8.40276 2.09385,-6.15999 2.18267,-7.43476 0.58671,-8.42112 -1.38438,-0.85559 -1.49881,-1.62891 -0.43366,-2.93057 0.99338,-1.21396 1.05942,-4.06718 0.21064,-9.10163 -0.67998,-4.03333 -0.82011,-10.03333 -0.3114,-13.33333 0.50871,-3.3 0.76784,-7.16678 0.57584,-8.59283 -0.4063,-3.01784 2.00732,-11.60908 4.92712,-17.538 1.11887,-2.27196 1.68832,-5.57196 1.26544,-7.33333 -0.42288,-1.76138 -1.45366,-5.90251 -2.29064,-9.20251 -0.97454,-3.84244 -1.21838,-11.27403 -0.6781,-20.66667 0.46401,-8.06667 1.04685,-19.46667 1.2952,-25.33333 0.24834,-5.86667 1.20228,-15.03016 2.11985,-20.36332 1.11439,-6.47715 1.24108,-10.68278 0.38157,-12.66667 -0.7077,-1.63351 -1.12402,-12.39551 -0.92514,-23.91556 0.31194,-18.07108 0.75285,-21.80447 3.21277,-27.20432 3.09572,-6.79552 3.39869,-12.66556 1.47181,-28.5168 -0.66857,-5.5 -0.84872,-20.2 -0.40032,-32.66667 1.15504,-32.11263 0.22136,-81.38564 -1.59796,-84.32936 -0.88244,-1.42783 2.45504,-55.36647 4.84716,-78.337311 0.18526,-1.778927 -0.38809,-2.502056 -1.72229,-2.172196 -1.1,0.27196 -7.01537,1.123195 -13.14528,1.891633 -9.82754,1.231971 -11.66436,1.117622 -15.53555,-0.967153 -3.22147,-1.734876 -5.81294,-2.123957 -9.73414,-1.461475 -4.72718,0.798654 -5.45053,0.566776 -6.26815,-2.009326 -1.369397,-4.314577 2.29776,-7.582706 6.31044,-5.623803 4.98703,2.434558 12.48246,3.17512 18.6122,1.838918 13.73743,-2.994572 23.73801,-4.350097 26.23848,-3.55648 3.01459,0.956794 6.22293,8.976762 4.9344,12.334629 -2.95988,7.713337 -5.76017,77.137544 -4.29141,106.391924 0.22092,4.4 -0.12027,21.12099 -0.75831,37.15775 -0.81279,20.43088 -0.68943,34.39814 0.41215,46.66666 1.77693,19.79015 1.77076,24.33506 -0.0447,32.84226 -4.24503,19.89276 -5.33593,41.06512 -5.94252,115.33334 -0.23623,28.92172 -0.69553,36.91873 -2.33605,40.67268 -1.5391,3.52186 -2.05023,9.76108 -2.07539,25.33333 -0.0184,11.36336 -0.76203,26.96065 -1.6526,34.66065 -0.89057,7.7 -1.48288,23.00001 -1.31623,34.00001 0.16666,11 0.21159,24.95 0.0999,31 -0.28864,15.62862 -0.34765,37.86834 -0.13368,50.37354 0.1008,5.88879 -0.47151,15.41414 -1.27172,21.16745 -1.05953,7.61777 -1.05145,12.77746 0.0297,18.98606 1.11851,6.42287 1.1009,8.98792 -0.0715,10.40046 -0.95887,1.15536 -1.985,11.25165 -2.67371,26.30705 -0.64997,14.20889 -1.82691,26.10584 -2.81271,28.43211 -0.9323,2.2 -2.04882,8.05 -2.48116,13 -0.75316,8.62321 -0.6632,9 2.14864,9 1.6141,0 3.27719,-0.55412 3.69576,-1.23139 1.30575,-2.11276 12.99036,-5.18993 22.51347,-5.92897 5.01443,-0.38915 9.81443,-1.26476 10.66667,-1.9458 2.0481,-1.63667 15.84518,-6.22859 24.21619,-8.0596 3.66667,-0.80203 13.56667,-1.43747 22,-1.4121 8.43334,0.0253 26.43334,-0.3214 40,-0.7706 49.48874,-1.63858 85.88926,-0.43146 105.15534,3.48719 10.8334,2.20347 11.165,1.52675 9.47146,-19.32896 -0.76286,-9.39464 -1.0178,-18.24449 -0.56653,-19.66633 0.45128,-1.42184 -0.21551,-5.87891 -1.48175,-9.90462 -1.84338,-5.86057 -2.10949,-9.63673 -1.33518,-18.9458 2.0304,-24.40985 2.91057,-43.65208 2.02605,-44.29303 -2.43719,-1.76604 -3.23901,-29.71449 -3.38533,-118 -0.15356,-92.64733 -0.73828,-110.36208 -4.77508,-144.66667 -2.64106,-22.44363 -1.03004,-153.86336 2.14114,-174.66667 1.85943,-12.19795 3.2253,-36.69264 4.16355,-74.66667 0.28921,-11.70563 -0.30008,-23.19238 -1.6852,-32.848639 -2.54035,-17.709777 -2.09485,-19.767008 4.03167,-18.617665 2.41925,0.453855 10.59613,0.889991 18.17085,0.969191 17.87187,0.186865 29.63124,4.874596 27.32225,10.891689 -1.28852,3.357857 -4.78958,3.872787 -7.79385,1.146308 -2.26203,-2.05288 -5.59476,-2.6733 -17.53825,-3.26492 -13.44995,-0.666241 -14.88339,-0.509685 -16.31446,1.781814 -1.62381,2.60014 -0.84138,14.070242 1.13316,16.611722 0.57096,0.7349 0.46488,6.4349 -0.23573,12.66667 -0.70055,6.23177 -0.97959,16.1305 -0.62004,21.99716 0.63941,10.4331 -2.64859,62.66774 -4.09172,65.00277 -0.40127,0.64928 -0.95132,21.38926 -1.22233,46.08886 -0.27723,25.2657 -1.09283,46.9457 -1.86468,49.56624 -2.87819,9.77181 -1.56543,46.58321 3.15272,88.40655 3.15284,27.94783 4.64697,80.77485 4.49525,158.9356 -0.10627,54.76829 0.26332,72.31649 1.64293,78 2.05523,8.46668 2.42276,34.57266 0.76326,54.21375 -0.97251,11.51014 -0.78856,14.61756 1.22332,20.66666 1.66457,5.00484 2.46429,12.12676 2.69238,23.97691 0.17846,9.27152 0.75734,17.55773 1.28643,18.4138 0.52908,0.85608 0.217,3.355 -0.69351,5.55316 -1.46456,3.53573 -1.31581,4.45609 1.28968,7.98021 3.65,4.93688 3.2373,9.70192 -0.89106,10.28824 -1.65,0.23434 -3,-0.1466 -3,-0.84652 0,-2.01385 -11.67261,-5.30388 -24.01491,-6.76881 -11.61193,-1.37824 -53.77756,-3.49124 -63.31842,-3.173 -2.93334,0.0979 -16.13334,0.61369 -29.33334,1.14636 -13.2,0.53265 -33.22552,1.17301 -44.50116,1.42303 -18.64184,0.41333 -21.55837,0.81756 -32.15825,4.45705 -6.4114,2.20137 -12.90047,4.00249 -14.42015,4.00249 -1.51968,0 -3.13388,0.6 -3.5871,1.33334 -0.45323,0.73333 -5.29383,1.33333 -10.75691,1.33333 -8.92053,0 -10.49561,0.40767 -15.45469,4 -5.7786,4.186 -14.0582,5.46669 -15.08484,2.33333 z m 45.56373,-66.92318 c -1.34059,-1.34058 -2.3208,-6.14687 -2.93244,-14.37859 -0.80593,-10.84673 -0.54131,-21.15977 1.37457,-53.57135 0.49688,-8.40565 3.3223,-13.29516 6.08579,-10.53167 1.08567,1.08567 1.07692,3.36467 -0.0328,8.53899 -0.84875,3.95763 -1.10392,9.72473 -0.58087,13.1286 0.51304,3.3388 1.00096,9.37054 1.08426,13.40387 0.78637,38.07932 0.38174,34.66667 4.11033,34.66667 1.85688,0 5.60281,-0.93036 8.32427,-2.06746 3.87741,-1.62008 7.83526,-1.89165 18.29052,-1.25504 14.63636,0.89122 29.95641,-0.52056 43.34238,-3.99408 6.6681,-1.7303 12.49726,-2.11313 25.27767,-1.6601 11.39704,0.404 18.72105,0.0269 23.33333,-1.20143 3.69728,-0.98463 8.59887,-1.79736 10.89242,-1.80607 2.29353,-0.009 4.72856,-0.76582 5.41114,-1.68249 0.76098,-1.02192 0.78314,-10.43529 0.0573,-24.33333 -1.56832,-30.02918 -1.5874,-28.71186 0.4881,-33.70059 1.34186,-3.22531 1.43778,-4.9685 0.36684,-6.66667 -1.24948,-1.98129 -4.01252,-2.32508 -19.97178,-2.48493 -10.18692,-0.102 -20.92168,0.31573 -23.85502,0.92837 -21.43402,4.47661 -25.8362,5.25419 -29.75432,5.25557 -2.43154,8.7e-4 -5.43154,-0.5366 -6.66666,-1.19436 -1.23512,-0.65776 -7.56876,-1.84494 -14.07475,-2.63818 -6.50599,-0.79324 -12.60357,-2.08503 -13.55017,-2.87064 -1.24258,-1.03126 -3.09622,-0.85382 -6.6671,0.63818 -2.72029,1.13662 -8.08318,2.06658 -11.91753,2.06658 -3.83435,0 -8.71107,0.5486 -10.83717,1.21912 -8.40211,2.64978 -12.30182,2.72829 -15.29102,0.30778 -2.48828,-2.01489 -2.69494,-2.81072 -1.37186,-5.2829 1.07561,-2.0098 2.80936,-2.91067 5.60164,-2.91067 2.22414,0 10.73096,-0.97757 18.90404,-2.17239 12.04053,-1.7602 16.89336,-1.89882 25.57585,-0.73061 30.57813,4.11425 36.4076,4.54483 41.00204,3.02852 9.62663,-3.17707 29.10556,-5.41319 47.34961,-5.43557 23.83552,-0.0292 23.02864,-0.80847 22.80487,22.02297 -0.086,8.77456 0.21424,17.75375 0.6672,19.95375 1.65945,8.05996 2.19336,39.27803 0.7268,42.49677 -1.26928,2.78578 -2.68096,3.2903 -11.63964,4.15986 -5.60733,0.54426 -16.94439,0.86353 -25.19344,0.70948 -8.24905,-0.15404 -17.84905,0.3363 -21.33333,1.08966 -16.40479,3.54703 -25.18206,4.5465 -44.33506,5.04848 -11.36666,0.29791 -22.46666,0.80382 -24.66666,1.12423 -8.20456,1.19493 -19.66992,3.29865 -21.98851,4.03455 -1.31844,0.41845 -3.30333,-0.14535 -4.41087,-1.25288 z m 64.06604,-28.81147 c -4.90628,-5.21068 -6.14957,-8.39749 -3.83441,-9.82835 0.64108,-0.3962 2.79921,0.79362 4.79585,2.64403 2.86243,2.65283 4.02593,3.03601 5.50107,1.81176 1.98229,-1.64515 2.39924,-4.96433 1.0615,-8.4504 -0.5276,-1.37491 -2.50013,-2.12575 -5.66666,-2.157 -6.70606,-0.0661 -12.34464,-4.79176 -10.73827,-8.99948 0.63988,-1.67608 3.06881,-4.07608 5.39765,-5.33334 2.32883,-1.25725 5.34027,-3.3359 6.69208,-4.61924 1.35183,-1.28333 4.28759,-2.33333 6.52395,-2.33333 2.84807,0 5.51533,-1.40749 8.90411,-4.69863 9.22218,-8.95648 11.36646,-2.39794 2.363,7.22751 -5.60831,5.99573 -6.60204,6.53908 -10.73324,5.86868 -3.42866,-0.5564 -4.7565,-0.20775 -5.3781,1.41212 -0.97114,2.53076 4.67398,9.74518 10.30486,13.16952 4.66921,2.83951 5.12106,8.8486 1.15456,15.35414 -3.89,6.38006 -9.6919,6.00104 -16.34795,-1.06799 z M 188.00252,568.00939 c -0.78847,-2.92817 -1.49995,-9.37817 -1.58106,-14.33333 -0.0811,-4.95516 -0.89337,-10.20938 -1.80505,-11.67604 -2.17135,-3.49319 -2.52671,-27.76393 -0.46296,-31.62007 0.84564,-1.5801 1.66805,-5.61199 1.82759,-8.95976 0.68538,-14.38371 0.47613,-13.6354 3.68562,-13.17958 2.64622,0.37583 2.97208,1.13364 2.7632,6.42607 -1.20933,30.64133 0.38686,61.35006 3.34251,64.30571 0.78048,0.78048 5.77883,0.5372 13.27121,-0.64592 9.97196,-1.57465 14.35842,-1.61701 25.75284,-0.24864 15.06762,1.80948 60.80932,1.17968 66.31363,-0.91305 2.85525,-1.08558 3.15069,-1.83852 2.53183,-6.45254 -0.488,-3.63829 0.30028,-7.97846 2.59745,-14.30123 2.35264,-6.47544 3.22095,-11.37096 3.02903,-17.07766 -0.59916,-17.81531 -0.26142,-37.59203 0.71444,-41.83306 l 1.03537,-4.49973 -5.17575,0.80597 c -2.84666,0.44328 -15.82133,1.81566 -28.83258,3.04971 -18.28131,1.73391 -24.79522,1.90372 -28.66667,0.74731 -17.91107,-5.35006 -20.86248,-5.57691 -45.09473,-3.46606 -29.129,2.5374 -34.42972,2.26616 -35.00615,-1.79125 -0.59925,-4.218 2.92336,-5.33319 21.98716,-6.96069 22.57544,-1.92731 43.48583,-1.80359 45.55896,0.26954 2.06647,2.06647 30.86988,2.0527 59.54492,-0.0285 24.60224,-1.78557 23.89984,-2.18688 23.23991,13.27773 -0.26043,6.10263 -0.51242,19.49568 -0.55998,29.76235 -0.0527,11.36256 -0.97581,23.62303 -2.35929,31.33334 -1.25004,6.96666 -2.28357,15.77624 -2.29672,19.57681 -0.0195,5.63045 -0.49792,7.0606 -2.58341,7.72251 -1.40774,0.44678 -24.05774,0.70045 -50.33334,0.56368 -46.15674,-0.24026 -59.18293,0.53464 -65.35285,3.88764 -4.56172,2.47904 -5.55081,1.95676 -7.08513,-3.74127 z m 58.51702,-33.93427 c -1.34785,-1.34785 0.30707,-13.26933 2.27128,-16.36153 1.03171,-1.6242 1.8947,-3.7242 1.91774,-4.66667 0.0528,-2.16088 6.25289,-6.76745 7.81174,-5.80403 0.63966,0.39532 0.20096,3.39411 -0.97486,6.66396 -1.17583,3.26984 -1.71322,6.36984 -1.19418,6.88887 0.51903,0.51904 4.88716,-0.31547 9.70696,-1.85445 7.98906,-2.55095 12.44763,-2.71419 12.70752,-0.46527 0.0545,0.47153 0.35236,2.21807 0.66194,3.88117 0.78113,4.19646 -3.19314,5.79971 -29.44396,11.87795 -1.47563,0.34167 -3.0345,0.26967 -3.46418,-0.16 z m -0.7424,-32.17505 c -2.13973,-5.57607 7.54078,-14.09595 12.81127,-11.27527 5.76179,3.08361 4.33897,10.70855 -1.99821,10.70855 -1.6958,0 -4.64374,0.59329 -6.55098,1.31841 -2.74482,1.04359 -3.63329,0.88689 -4.26208,-0.75169 z M 191.4013,433.44332 c -1.06857,-1.72899 -2.89169,-28.65886 -2.53486,-37.44331 0.66612,-16.39856 1.51008,-27.64367 2.36778,-31.54875 0.81704,-3.71998 0.53928,-4.21901 -2.81722,-5.06144 -2.04799,-0.51401 -4.14928,-1.62329 -4.66952,-2.46506 -1.21744,-1.96986 2.64018,-6.25808 5.62966,-6.25808 1.26346,0 4.45119,-0.9 7.08387,-2 6.29897,-2.63188 17.75461,-2.53648 28.15363,0.23446 7.29285,1.94327 10.44902,2.04047 24.21884,0.74592 8.70825,-0.8187 20.03318,-2.09484 25.16652,-2.83588 5.13333,-0.74104 18.12514,-1.74597 28.8707,-2.2332 19.42215,-0.88062 19.54702,-0.86782 21.17326,2.17083 0.89973,1.68117 1.4643,6.40045 1.25461,10.48728 -0.20971,4.08683 -0.26205,15.23059 -0.1164,24.76392 0.29192,19.09991 -1.46757,38.81868 -3.65933,41.01044 -0.976,0.976 -1.94016,0.98404 -3.13306,0.0261 -0.94774,-0.76108 -6.62662,-2.36448 -12.61973,-3.56312 -9.202,-1.84045 -12.62328,-1.93758 -22,-0.62465 -6.10689,0.8551 -15.30344,1.70573 -20.43677,1.89027 -5.13334,0.18456 -16.83334,1.61916 -26,3.188 -9.16667,1.56884 -20.82196,3.54315 -25.90064,4.38736 -5.75451,0.95656 -10.01108,2.44255 -11.29632,3.94359 -2.17491,2.54011 -7.45495,3.25657 -8.73507,1.18529 z m 20.87462,-14.77664 c 2.4246,0 6.50438,-0.6243 9.06621,-1.38732 8.15923,-2.43018 24.08495,-4.28682 43.9912,-5.12852 11.45697,-0.48446 20.51105,-1.4918 22.22419,-2.47266 3.18484,-1.82349 9.61058,-1.05222 15.37626,1.84559 4.50578,2.26459 9.90882,2.33289 11.30382,0.14291 0.5839,-0.91667 1.12208,-14.28171 1.19594,-29.70011 l 0.1343,-28.03343 -16.83224,0.23863 c -9.25774,0.1312 -19.5105,0.96295 -22.78392,1.84821 -12.27084,3.31855 -43.2667,3.95432 -53.53774,1.09815 -7.31488,-2.03413 -21.09686,-1.91588 -22.39972,0.1922 -1.52021,2.45975 -3.34756,26.92633 -3.34756,44.8208 0,18.92647 1.12747,21.74472 7.40124,18.50043 2.08982,-1.08068 5.78343,-1.96488 8.20802,-1.96488 z m 49.39074,-16.94098 c -2.57274,-0.49553 -3,-1.41913 -3,-6.48509 0,-5.4122 -0.27936,-5.90727 -3.33333,-5.90727 -2.43376,0 -3.33333,-0.7128 -3.33333,-2.64126 0,-1.70536 -1.18114,-2.93771 -3.33334,-3.47788 -4.39732,-1.10366 -4.2483,-4.26566 0.28219,-5.98814 2.61408,-0.99388 4.45748,-0.92401 6.65528,0.2522 2.43509,1.30323 3.77137,1.26106 6.71781,-0.21204 2.02294,-1.01137 6.07806,-2.00658 9.01139,-2.21156 2.93333,-0.20498 7.13333,-0.52613 9.33333,-0.71366 3.44586,-0.29375 4.05699,0.15177 4.41131,3.21592 0.36836,3.1856 -0.4228,3.93122 -7.57875,7.14262 -8.11233,3.6406 -10.02873,5.70251 -8.64692,9.30346 1.11447,2.90425 -0.62249,8.69472 -2.54437,8.4821 -0.90269,-0.0999 -2.99127,-0.4416 -4.64127,-0.7594 z M 264,371.82489 c -1.83334,-0.73669 -4.96007,-1.01831 -6.94831,-0.62583 -3.99645,0.78891 -5.45147,-0.39484 -3.78988,-3.08332 1.68349,-2.72394 14.26757,-5.56198 18.13777,-4.09054 3.82379,1.4538 3.99155,2.34714 1.19148,6.3448 -2.27226,3.24412 -3.58506,3.46644 -8.59106,1.45489 z"
       id="path355" />
  </g>
</svg>
